<svg width="240" height="120" viewBox="0 0 240 120" fill="none" xmlns="http://www.w3.org/2000/svg">
<path d="M78.4891 48.9674C79.9192 48.9674 81.1302 49.2205 82.1219 49.7268C83.1368 50.21 83.898 50.8658 84.4055 51.6942C84.9128 52.5225 85.1666 53.4084 85.1666 54.3519C85.1666 55.8015 84.5785 57.0671 83.4021 58.1486C82.2488 59.2071 80.6803 59.8859 78.6967 60.185C81.3723 60.4841 83.3213 61.1975 84.5438 62.325C85.7663 63.4525 86.3776 64.7986 86.3776 66.3634C86.3776 67.5829 86.0201 68.7104 85.305 69.7459C84.613 70.7584 83.5866 71.5752 82.2257 72.1965C80.8879 72.8178 79.2964 73.1284 77.4512 73.1284H65.9299V71.4371L67.2446 71.3681C67.9135 71.3221 68.421 71.138 68.767 70.8158C69.136 70.4937 69.3206 70.0219 69.3206 69.4008V52.6951C69.3206 52.0738 69.136 51.6021 68.767 51.28C68.421 50.9578 67.9135 50.7737 67.2446 50.7277L65.9299 50.6587V48.9674H78.4891ZM73.5762 59.5637H75.2714C76.4016 59.5637 77.3474 59.3451 78.1085 58.908C78.8927 58.4708 79.481 57.907 79.873 57.2166C80.2652 56.5263 80.4613 55.79 80.4613 55.0077C80.4613 53.7881 80.046 52.7756 79.2157 51.9703C78.4084 51.1419 77.3243 50.7277 75.9634 50.7277H73.5762V59.5637ZM73.5762 69.2972C73.5762 69.9875 73.7607 70.5052 74.1297 70.8504C74.4988 71.1955 74.9947 71.3681 75.6174 71.3681H77.0706C78.3853 71.3681 79.4464 70.9194 80.2536 70.0219C81.0609 69.1246 81.4646 67.9856 81.4646 66.6049C81.4646 65.0632 80.911 63.7977 79.8039 62.8082C78.7197 61.8188 77.1744 61.324 75.1677 61.324H73.5762V69.2972Z" fill="white"/>
<path d="M112.308 55.6249V58.7353C113.023 57.6309 113.957 56.7794 115.111 56.1812C116.264 55.5829 117.44 55.2838 118.64 55.2838C120.254 55.2838 121.511 55.8015 122.411 56.837C123.311 57.8724 123.76 59.3451 123.76 61.2549V69.5732C123.76 70.1025 123.922 70.5627 124.245 70.9539C124.591 71.3221 125.063 71.5176 125.663 71.5407L126.251 71.5752V73.1284H117.394V71.5752L118.017 71.5407C119.147 71.4716 119.712 70.8734 119.712 69.7458V61.8417C119.712 60.6452 119.436 59.7363 118.882 59.115C118.351 58.4707 117.579 58.1486 116.564 58.1486C115.872 58.1486 115.145 58.2867 114.384 58.5627C113.646 58.8159 113.012 59.23 112.481 59.8053V69.7458C112.481 70.8734 113.046 71.4716 114.177 71.5407L114.799 71.5752V73.1284H105.769V71.5752L106.53 71.5407C107.153 71.5176 107.626 71.3335 107.949 70.9884C108.272 70.6203 108.433 70.1485 108.433 69.5732V58.9426C108.433 58.3674 108.26 57.9302 107.914 57.631C107.591 57.3089 107.13 57.1477 106.53 57.1477H105.908V55.6249H112.308Z" fill="white"/>
<path d="M133.996 69.7459C133.996 70.2981 134.157 70.7238 134.48 71.023C134.826 71.3221 135.299 71.4947 135.899 71.5407L136.66 71.5752V73.1284H127.284V71.5752L128.045 71.5407C128.598 71.5176 129.048 71.3566 129.394 71.0575C129.763 70.7584 129.948 70.3212 129.948 69.7459V51.5561C129.948 50.9808 129.775 50.5436 129.429 50.2445C129.106 49.9223 128.645 49.7613 128.045 49.7613H127.422V48.208L133.996 47V69.7459ZM143.648 68.6068C144.456 69.5733 145.09 70.2981 145.551 70.7813C146.036 71.2645 146.428 71.5292 146.728 71.5752V73.1284H142.091C141.492 72.4151 140.95 71.7477 140.466 71.1265L134.618 63.8091L139.047 59.4602C139.508 59 139.739 58.5973 139.739 58.2522C139.739 57.9069 139.532 57.6423 139.116 57.4583C138.701 57.2511 138.101 57.1477 137.317 57.1477V55.6289H146.036V57.1477C145.182 57.2397 144.479 57.4237 143.926 57.6999C143.395 57.976 142.795 58.4362 142.126 59.0805L138.493 62.4975L143.164 68.0546L143.648 68.6068Z" fill="white"/>
<path d="M159.652 55.2838C160.068 55.2838 160.552 55.3643 161.106 55.5254V59.5291C160.367 59.3221 159.641 59.2185 158.926 59.2185C157.98 59.2185 157.103 59.4026 156.297 59.7708C155.513 60.139 154.901 60.7372 154.463 61.5656V69.7458C154.463 70.2981 154.636 70.7353 154.982 71.0575C155.328 71.3566 155.789 71.5176 156.365 71.5407L157.473 71.5752V73.1284H147.751V71.5752L148.512 71.5407C149.112 71.4947 149.573 71.3335 149.896 71.0575C150.242 70.7583 150.415 70.3211 150.415 69.7458V58.9424C150.415 58.3671 150.242 57.9299 149.896 57.6308C149.573 57.3086 149.112 57.1476 148.512 57.1476H147.889V55.6289H154.29V60.5992C154.89 58.7353 155.662 57.3892 156.608 56.5608C157.554 55.7094 158.569 55.2838 159.652 55.2838Z" fill="white"/>
<path d="M186.88 70.5742C187.618 70.5742 188.495 70.4246 189.51 70.1255V71.6788C187.572 72.8983 185.831 73.508 184.285 73.508C182.994 73.508 181.967 73.1629 181.206 72.4726C180.468 71.7593 180.099 70.6432 180.099 69.1246V57.1821H177.297V55.6289C178.519 55.3298 179.545 54.8351 180.376 54.1447C181.229 53.4314 181.967 52.534 182.59 51.4525H184.147V55.6289H189.406V57.3202H184.147V67.8129C184.147 68.7104 184.331 69.4006 184.7 69.8839C185.069 70.3441 185.796 70.5742 186.88 70.5742Z" fill="white"/>
<path d="M198.98 70.091C199.972 70.091 200.837 69.8724 201.575 69.4352C202.336 68.975 202.901 68.3192 203.27 67.4678H204.724C204.377 69.3086 203.581 70.7813 202.336 71.8858C201.113 72.9673 199.556 73.508 197.665 73.508C196.119 73.508 194.77 73.1398 193.617 72.4035C192.463 71.6672 191.564 70.6663 190.919 69.4007C190.296 68.1121 189.984 66.6624 189.984 65.0517C189.984 63.3029 190.342 61.6807 191.057 60.185C191.795 58.6893 192.822 57.5042 194.136 56.6299C195.474 55.7325 196.997 55.2838 198.703 55.2838C200.872 55.2838 202.463 56.0086 203.478 57.4582C204.493 58.908 205 60.9558 205 63.602H193.791C193.767 63.7171 193.756 63.8551 193.756 64.0163C193.801 65.8111 194.275 67.2722 195.174 68.3997C196.097 69.5272 197.365 70.091 198.98 70.091ZM197.7 56.7334C196.662 56.7334 195.808 57.2166 195.14 58.1831C194.494 59.1265 194.067 60.3576 193.859 61.8762H200.676C200.676 60.4036 200.445 59.184 199.983 58.2176C199.522 57.2282 198.761 56.7334 197.7 56.7334Z" fill="white"/>
<path d="M102.374 69.5733C102.374 69.9079 102.454 70.5215 102.855 70.983C103.147 71.3179 103.657 71.5752 104.187 71.5752C104.579 71.5752 105.177 71.5752 105.177 71.5752L105.176 72.4381C104.092 73.1514 103.02 73.508 101.959 73.508C101.013 73.508 100.229 73.2205 99.6059 72.6452C98.9831 72.0699 98.6256 71.2415 98.5333 70.1599C97.7952 71.2415 96.8838 72.07 95.7996 72.6453C94.7387 73.2205 93.6661 73.5081 92.582 73.5081C91.2673 73.5081 90.1832 73.094 89.3298 72.2655C88.4763 71.4372 88.0496 70.3097 88.0496 68.883C88.0496 67.7555 88.3264 66.8578 88.88 66.1904C89.4567 65.5001 90.1487 64.9939 90.956 64.6717C91.7864 64.3266 92.9858 63.9123 94.5544 63.4291C95.5232 63.13 96.2959 62.8538 96.8726 62.6007C97.4723 62.3246 97.9566 61.9449 98.3257 61.4617C98.7178 60.9554 98.9139 60.2996 98.9139 59.4942C98.9139 58.5737 98.6717 57.8834 98.1874 57.4232C97.703 56.963 97.034 56.7328 96.1806 56.7328C95.1656 56.7328 94.3468 57.124 93.724 57.9065C93.1243 58.6658 92.7552 59.8163 92.6168 61.3581H88.2918C88.5686 59.3562 89.399 57.8489 90.783 56.8364C92.19 55.8009 93.9777 55.2831 96.1459 55.2831C98.1758 55.2831 99.7212 55.7434 100.782 56.6638C101.843 57.5843 102.374 58.8959 102.374 60.5987V69.5733ZM94.9693 70.6778C95.7075 70.6778 96.3651 70.5281 96.9417 70.229C97.5184 69.9068 97.9797 69.5041 98.3257 69.0209V63.4291C97.8413 63.7053 97.3915 63.9239 96.9763 64.0849C96.5611 64.2461 96.0998 64.4071 95.5923 64.5682C94.762 64.8443 94.116 65.109 93.6547 65.3621C93.2165 65.5922 92.882 65.9028 92.6513 66.294C92.4207 66.6852 92.3054 67.2145 92.3054 67.8818C92.3054 69.7458 93.1932 70.6778 94.9693 70.6778Z" fill="white"/>
<path d="M175.97 69.5733C175.97 69.9079 176.029 70.5269 176.431 70.9884C176.722 71.3233 177.253 71.5752 177.783 71.5752C178.175 71.5752 178.773 71.5752 178.773 71.5752V72.4381C177.688 73.1514 176.616 73.508 175.554 73.508C174.609 73.508 173.824 73.2205 173.201 72.6452C172.579 72.0699 172.222 71.2415 172.129 70.1599C171.391 71.2415 170.479 72.07 169.396 72.6453C168.334 73.2205 167.262 73.5081 166.178 73.5081C164.864 73.5081 163.779 73.094 162.926 72.2655C162.072 71.4372 161.645 70.3097 161.645 68.883C161.645 67.7555 161.922 66.8578 162.476 66.1904C163.052 65.5001 163.744 64.9939 164.552 64.6717C165.382 64.3266 166.582 63.9123 168.151 63.4291C169.119 63.13 169.892 62.8538 170.469 62.6007C171.068 62.3246 171.552 61.9449 171.921 61.4617C172.314 60.9554 172.51 60.2996 172.51 59.4942C172.51 58.5737 172.267 57.8834 171.783 57.4232C171.298 56.963 170.63 56.7328 169.776 56.7328C168.761 56.7328 167.943 57.124 167.32 57.9065C166.72 58.6658 166.351 59.8163 166.213 61.3581H161.888C162.165 59.3562 162.995 57.8489 164.379 56.8364C165.786 55.8009 167.574 55.2831 169.741 55.2831C171.772 55.2831 173.317 55.7434 174.378 56.6638C175.439 57.5843 175.97 58.8959 175.97 60.5987V69.5733ZM168.565 70.6778C169.303 70.6778 169.961 70.5281 170.537 70.229C171.114 69.9068 171.576 69.5041 171.921 69.0209V63.4291C171.438 63.7053 170.987 63.9239 170.572 64.0849C170.157 64.2461 169.696 64.4071 169.188 64.5682C168.358 64.8443 167.712 65.109 167.25 65.3621C166.813 65.5922 166.478 65.9028 166.247 66.294C166.017 66.6852 165.901 67.2145 165.901 67.8818C165.901 69.7458 166.789 70.6778 168.565 70.6778Z" fill="white"/>
<path d="M35.0013 53.7869C35.0013 51.1242 37.1635 48.9657 39.8307 48.9657C42.4978 48.9657 44.6601 51.1242 44.6601 53.7869C44.6601 56.4496 42.4978 58.6082 39.8307 58.6082C37.1635 58.6082 35.0013 56.4496 35.0013 53.7869Z" fill="white"/>
<path d="M49.4213 68.3078C49.4213 65.6451 51.5835 63.4866 54.2507 63.4866C56.9178 63.4866 59.08 65.6451 59.08 68.3078C59.08 70.9706 56.9178 73.1291 54.2507 73.1291C51.5835 73.1291 49.4213 70.9706 49.4213 68.3078Z" fill="white"/>
<path d="M59.0796 57.219C59.0796 59.3331 57.3627 61.0471 55.245 61.0471C55.2179 61.0471 55.1909 61.0472 55.164 61.0471L47.0604 61.05L48.6263 55.2157C49.4913 51.9934 50.565 48.9664 54.9131 48.9661H59.0796V57.219Z" fill="white"/>
<path d="M38.9362 61.0478L47.0594 61.0507L45.4935 66.8847L45.4508 67.0348C44.5155 70.1103 43.5564 73.045 39.3695 73.1266L39.1664 73.1284H35V64.8758C35 62.7616 36.7167 61.0478 38.8345 61.0478V61.0468C38.8684 61.0468 38.9024 61.0474 38.9362 61.0478Z" fill="white"/>
</svg>
