<svg width="176" height="28" viewBox="0 0 176 28" fill="none" xmlns="http://www.w3.org/2000/svg">
<path d="M45.024 2.04026C46.5046 2.04026 47.7583 2.30275 48.7851 2.82773C49.8358 3.32885 50.6238 4.00894 51.1492 4.868C51.6745 5.72705 51.9372 6.64576 51.9372 7.62414C51.9372 9.12749 51.3283 10.4399 50.1104 11.5615C48.9164 12.6592 47.2926 13.3631 45.239 13.6733C48.009 13.9835 50.0268 14.7233 51.2924 15.8926C52.5581 17.0618 53.1909 18.4578 53.1909 20.0805C53.1909 21.3452 52.8208 22.5145 52.0805 23.5883C51.3641 24.6383 50.3014 25.4854 48.8925 26.1297C47.5075 26.774 45.8598 27.0961 43.9495 27.0961H32.0216V25.3422L33.3827 25.2706C34.0752 25.2229 34.6006 25.032 34.9588 24.6979C35.3408 24.3638 35.5319 23.8746 35.5319 23.2304V5.90602C35.5319 5.26173 35.3408 4.77255 34.9588 4.43847C34.6006 4.10439 34.0752 3.91349 33.3827 3.86576L32.0216 3.79417V2.04026H45.024ZM39.9377 13.029H41.6928C42.8629 13.029 43.842 12.8023 44.63 12.349C45.4419 11.8956 46.0509 11.3109 46.4568 10.595C46.8628 9.87916 47.0658 9.11555 47.0658 8.30422C47.0658 7.0395 46.6359 5.98954 45.7763 5.15435C44.9405 4.29529 43.8181 3.86576 42.4092 3.86576H39.9377V13.029ZM39.9377 23.123C39.9377 23.8389 40.1287 24.3758 40.5108 24.7337C40.8929 25.0916 41.4063 25.2706 42.051 25.2706H43.5555C44.9166 25.2706 46.0151 24.8053 46.8508 23.8746C47.6866 22.944 48.1045 21.7628 48.1045 20.331C48.1045 18.7322 47.5314 17.4198 46.3852 16.3937C45.2628 15.3676 43.6629 14.8545 41.5854 14.8545H39.9377V23.123Z" fill="#13223B"></path>
<path d="M80.0368 8.94436V12.17C80.7771 11.0246 81.7442 10.1416 82.9382 9.52122C84.1322 8.90079 85.35 8.59057 86.5918 8.59057C88.2633 8.59057 89.5648 9.12748 90.4961 10.2013C91.4274 11.2751 91.893 12.8023 91.893 14.7829V23.4093C91.893 23.9582 92.0602 24.4354 92.3945 24.8411C92.7527 25.2229 93.2422 25.4257 93.8631 25.4496L94.4721 25.4854V27.0961H85.3023V25.4854L85.947 25.4496C87.1171 25.378 87.7022 24.7576 87.7022 23.5883V15.3914C87.7022 14.1506 87.4156 13.208 86.8425 12.5637C86.2933 11.8956 85.4933 11.5615 84.4426 11.5615C83.7262 11.5615 82.974 11.7047 82.1859 11.991C81.4218 12.2535 80.7651 12.683 80.2159 13.2796V23.5883C80.2159 24.7576 80.8009 25.378 81.971 25.4496L82.6158 25.4854V27.0961H73.2669V25.4854L74.0549 25.4496C74.6997 25.4257 75.1892 25.2348 75.5235 24.8769C75.8578 24.4951 76.025 24.0059 76.025 23.4093V12.3849C76.025 11.7884 75.8459 11.335 75.4877 11.0248C75.1534 10.6907 74.6758 10.5236 74.0549 10.5236H73.4102V8.94436H80.0368Z" fill="#13223B"></path>
<path d="M102.49 23.5883C102.49 24.161 102.657 24.6025 102.991 24.9127C103.349 25.2229 103.839 25.4019 104.46 25.4496L105.248 25.4854V27.0961H95.5408V25.4854L96.3288 25.4496C96.9019 25.4257 97.3675 25.2587 97.7257 24.9485C98.1078 24.6383 98.2989 24.1849 98.2989 23.5883V4.72482C98.2989 4.12825 98.1198 3.67486 97.7616 3.36464C97.4272 3.03056 96.9497 2.86353 96.3288 2.86353H95.684V1.25279L102.49 0V23.5883ZM112.483 22.4071C113.319 23.4093 113.976 24.161 114.453 24.6621C114.955 25.1632 115.361 25.4377 115.671 25.4854V27.0961H110.871C110.251 26.3564 109.689 25.6643 109.188 25.0201L103.134 17.4317L107.719 12.9217C108.197 12.4444 108.436 12.0268 108.436 11.6689C108.436 11.3109 108.221 11.0365 107.791 10.8456C107.361 10.6308 106.74 10.5235 105.928 10.5235V8.94851H114.955V10.5235C114.071 10.6189 113.343 10.8098 112.77 11.0962C112.221 11.3825 111.6 11.8598 110.907 12.5279L107.146 16.0715L111.982 21.8344L112.483 22.4071Z" fill="#13223B"></path>
<path d="M129.052 8.59057C129.482 8.59057 129.983 8.67409 130.557 8.84113V12.9932C129.792 12.7785 129.04 12.6711 128.3 12.6711C127.321 12.6711 126.413 12.862 125.578 13.2438C124.766 13.6256 124.133 14.246 123.679 15.1051V23.5883C123.679 24.161 123.858 24.6144 124.217 24.9485C124.575 25.2587 125.052 25.4257 125.649 25.4496L126.796 25.4854V27.0961H116.73V25.4854L117.518 25.4496C118.139 25.4019 118.617 25.2348 118.951 24.9485C119.309 24.6383 119.488 24.1849 119.488 23.5883V12.3847C119.488 11.7881 119.309 11.3347 118.951 11.0245C118.617 10.6904 118.139 10.5234 117.518 10.5234H116.873V8.94851H123.5V14.1029C124.121 12.17 124.921 10.774 125.9 9.91495C126.879 9.03203 127.93 8.59057 129.052 8.59057Z" fill="#13223B"></path>
<path d="M157.241 24.4473C158.005 24.4473 158.912 24.2922 159.963 23.982V25.5928C157.957 26.8575 156.154 27.4898 154.554 27.4898C153.217 27.4898 152.154 27.1319 151.366 26.416C150.602 25.6763 150.22 24.5189 150.22 22.944V10.5592H147.319V8.94851C148.584 8.6383 149.647 8.12525 150.507 7.40937C151.39 6.66963 152.154 5.73898 152.799 4.61743H154.411V8.94851H159.856V10.7024H154.411V21.5838C154.411 22.5145 154.602 23.2303 154.984 23.7315C155.366 24.2087 156.118 24.4473 157.241 24.4473Z" fill="#13223B"></path>
<path d="M169.767 23.9462C170.794 23.9462 171.69 23.7195 172.454 23.2661C173.242 22.7889 173.827 22.1088 174.209 21.2259H175.714C175.355 23.1349 174.531 24.6621 173.242 25.8075C171.976 26.9291 170.364 27.4898 168.406 27.4898C166.806 27.4898 165.409 27.108 164.215 26.3444C163.021 25.5808 162.09 24.5428 161.422 23.2304C160.777 21.894 160.454 20.3907 160.454 18.7203C160.454 16.9067 160.825 15.2244 161.565 13.6733C162.329 12.1223 163.392 10.8933 164.753 9.98654C166.138 9.05589 167.714 8.59057 169.481 8.59057C171.726 8.59057 173.373 9.34225 174.424 10.8456C175.475 12.349 176 14.4727 176 17.2169H164.395C164.371 17.3363 164.359 17.4794 164.359 17.6465C164.406 19.5078 164.896 21.023 165.827 22.1923C166.783 23.3616 168.096 23.9462 169.767 23.9462ZM168.442 10.0939C167.368 10.0939 166.484 10.595 165.792 11.5973C165.123 12.5756 164.681 13.8523 164.466 15.4272H171.523C171.523 13.9 171.284 12.6353 170.806 11.6331C170.329 10.607 169.541 10.0939 168.442 10.0939Z" fill="#13223B"></path>
<path d="M69.7518 23.4093C69.7518 23.7563 69.8346 24.3927 70.2502 24.8713C70.5517 25.2186 71.0802 25.4854 71.6285 25.4854C72.0344 25.4854 72.6536 25.4854 72.6536 25.4854L72.6533 26.3802C71.5309 27.12 70.4204 27.4898 69.3219 27.4898C68.3428 27.4898 67.5309 27.1916 66.8861 26.595C66.2413 25.9984 65.8712 25.1393 65.7757 24.0177C65.0115 25.1393 64.0679 25.9985 62.9455 26.5951C61.8471 27.1916 60.7367 27.4899 59.6143 27.4899C58.2532 27.4899 57.1308 27.0604 56.2473 26.2013C55.3637 25.3423 54.9219 24.173 54.9219 22.6935C54.9219 21.5242 55.2085 20.5933 55.7816 19.9012C56.3787 19.1853 57.0951 18.6603 57.9309 18.3262C58.7906 17.9683 60.0324 17.5387 61.6563 17.0376C62.6593 16.7274 63.4593 16.441 64.0563 16.1785C64.6772 15.8922 65.1786 15.4984 65.5607 14.9973C65.9667 14.4723 66.1697 13.7922 66.1697 12.9569C66.1697 12.0024 65.9189 11.2865 65.4175 10.8092C64.916 10.332 64.2234 10.0933 63.3399 10.0933C62.2891 10.0933 61.4414 10.499 60.7966 11.3104C60.1757 12.0979 59.7936 13.291 59.6503 14.8899H55.1727C55.4593 12.8138 56.319 11.2507 57.7518 10.2007C59.2085 9.12684 61.0593 8.58992 63.304 8.58992C65.4055 8.58992 67.0055 9.06718 68.104 10.0217C69.2025 10.9763 69.7518 12.3365 69.7518 14.1024V23.4093ZM62.0859 24.5548C62.8501 24.5548 63.5309 24.3995 64.1279 24.0893C64.7249 23.7552 65.2025 23.3376 65.5607 22.8365V17.0376C65.0592 17.324 64.5936 17.5507 64.1637 17.7177C63.7339 17.8848 63.2563 18.0518 62.7309 18.2189C61.8712 18.5052 61.2025 18.7797 60.7249 19.0422C60.2712 19.2808 59.9249 19.6029 59.6861 20.0086C59.4473 20.4143 59.3279 20.9632 59.3279 21.6552C59.3279 23.5882 60.2471 24.5548 62.0859 24.5548Z" fill="#13223B"></path>
<path d="M145.945 23.4093C145.945 23.7563 146.007 24.3983 146.423 24.8769C146.724 25.2242 147.274 25.4854 147.822 25.4854C148.228 25.4854 148.847 25.4854 148.847 25.4854L148.847 26.3802C147.724 27.12 146.614 27.4898 145.515 27.4898C144.536 27.4898 143.724 27.1916 143.079 26.595C142.435 25.9984 142.065 25.1393 141.969 24.0177C141.205 25.1393 140.261 25.9985 139.139 26.5951C138.04 27.1916 136.93 27.4899 135.808 27.4899C134.447 27.4899 133.324 27.0604 132.441 26.2013C131.557 25.3423 131.115 24.173 131.115 22.6935C131.115 21.5242 131.402 20.5933 131.975 19.9012C132.572 19.1853 133.288 18.6603 134.124 18.3262C134.984 17.9683 136.226 17.5387 137.85 17.0376C138.853 16.7274 139.653 16.441 140.25 16.1785C140.87 15.8922 141.372 15.4984 141.754 14.9973C142.16 14.4723 142.363 13.7922 142.363 12.9569C142.363 12.0024 142.112 11.2865 141.611 10.8092C141.109 10.332 140.417 10.0933 139.533 10.0933C138.482 10.0933 137.635 10.499 136.99 11.3104C136.369 12.0979 135.987 13.291 135.844 14.8899H131.366C131.653 12.8138 132.512 11.2507 133.945 10.2007C135.402 9.12684 137.253 8.58992 139.497 8.58992C141.599 8.58992 143.199 9.06718 144.297 10.0217C145.396 10.9763 145.945 12.3365 145.945 14.1024V23.4093ZM138.279 24.5548C139.043 24.5548 139.724 24.3995 140.321 24.0893C140.918 23.7552 141.396 23.3376 141.754 22.8365V17.0376C141.253 17.324 140.787 17.5507 140.357 17.7177C139.927 17.8848 139.45 18.0518 138.924 18.2189C138.065 18.5052 137.396 18.7797 136.918 19.0422C136.465 19.2808 136.118 19.6029 135.879 20.0086C135.641 20.4143 135.521 20.9632 135.521 21.6552C135.521 23.5882 136.44 24.5548 138.279 24.5548Z" fill="#13223B"></path>
<path d="M0.00132795 7.03829C0.00132819 4.27696 2.23983 2.03847 5.00115 2.03847C7.76248 2.03847 10.001 4.27696 10.001 7.03829C10.001 9.79962 7.76248 12.0381 5.00115 12.0381C2.23983 12.0381 0.00132771 9.79962 0.00132795 7.03829Z" fill="#0061FE"></path>
<path d="M14.9303 22.097C14.9303 19.3357 17.1688 17.0972 19.9301 17.0972C22.6914 17.0972 24.9299 19.3357 24.9299 22.097C24.9299 24.8584 22.6914 27.0969 19.9301 27.0969C17.1688 27.0969 14.9303 24.8584 14.9303 22.097Z" fill="#0061FE"></path>
<path d="M24.9294 10.5975C24.9294 12.7899 23.152 14.5673 20.9595 14.5673C20.9315 14.5673 20.9035 14.5675 20.8756 14.5673L12.486 14.5704L14.1072 8.52001C15.0027 5.1783 16.1143 2.03923 20.6159 2.03893H24.9294V10.5975Z" fill="#0061FE"></path>
<path d="M4.07514 14.5681L12.485 14.5711L10.8639 20.6212L10.8196 20.7768C9.85139 23.9662 8.85838 27.0096 4.52372 27.0943L4.31343 27.0961H0V18.5379C0 16.3454 1.77734 14.5681 3.96981 14.5681V14.567C4.00497 14.567 4.04008 14.5677 4.07514 14.5681Z" fill="#0061FE"></path>
</svg>
