<svg width="240" height="120" viewBox="0 0 240 120" fill="none" xmlns="http://www.w3.org/2000/svg">
<path d="M40.7387 45.3601C48.5109 45.3601 54.876 51.4573 55.2781 59.1625H68.5444C66.0653 55.5444 54.541 40 40.7387 40C26.9363 40 15.4791 55.5444 13 59.2295H26.2663C26.6013 51.5243 32.9665 45.3601 40.7387 45.3601ZM40.7387 74.5729C32.9665 74.5729 26.6013 68.4757 26.1993 60.7705H13C15.4791 64.3886 27.0033 80 40.8057 80C54.608 80 66.1323 64.4556 68.6114 60.7705H55.3451C54.943 68.4087 48.5779 74.5729 40.7387 74.5729Z" fill="white"/>
<path d="M42.2128 51.5243L32.2965 61.4406C30.4205 63.3166 30.4205 66.4657 32.2965 68.3417L32.3635 68.4087C34.2396 70.2848 37.3886 70.2848 39.2647 68.4087L49.1809 58.4925C51.057 56.6164 51.057 53.4674 49.1809 51.5913L49.1139 51.5243C47.2379 49.6483 44.0888 49.6483 42.2128 51.5243ZM43.8878 53.2663L38.9967 58.1575L43.3518 62.5126L38.3937 67.4707C36.9866 68.8777 34.7756 68.8777 33.3685 67.4707L33.3015 67.4037C31.8945 65.9967 31.8945 63.7856 33.3015 62.3786L38.0587 57.6215L43.2178 52.5293C44.6918 51.1223 47.0369 51.1223 48.4439 52.5293L48.5109 52.5963C48.6449 52.7303 48.7119 52.8643 48.8459 52.9983C47.3049 51.8593 45.1608 51.9933 43.8878 53.2663ZM90.454 46.2312L88.9129 53.2663C88.5779 54.7404 88.6449 54.7404 88.5779 55.0084C88.5779 55.1424 88.5779 55.4104 88.5109 55.7454C88.5109 55.8124 88.5109 56.0804 88.4439 56.2814C88.1089 55.2764 87.8409 54.8074 87.3049 54.3384C86.5009 53.6014 85.0938 53.1323 83.6868 53.1323C81.4087 53.1323 79.2647 54.1374 77.9246 55.9464C76.4506 57.8225 75.6466 60.4355 75.6466 62.9146C75.6466 66.8677 77.9246 69.4137 81.2747 69.4137C83.4188 69.4137 85.2278 68.4087 86.2999 66.5327H86.3669C86.3669 66.5997 86.2999 66.6667 86.2329 67.0017L85.8308 69.1457H89.7169C89.9849 67.3367 89.9179 67.3367 90.32 65.5947L94.4741 46.0972H90.454V46.2312ZM82.5478 66.3317C81.0067 66.3317 79.9347 64.9246 79.9347 62.9816C79.9347 61.6416 80.3367 60.0335 80.9397 58.8945C81.7437 57.3534 82.9498 56.5494 84.4238 56.5494C86.2999 56.5494 87.3719 57.8225 87.3719 60.1675C87.3049 63.3836 85.0938 66.3317 82.5478 66.3317ZM104.658 53.2663C102.447 53.2663 100.973 54.2044 99.6332 56.5494C99.6332 56.3484 99.7002 56.0804 99.7002 56.0804L99.7672 55.6784C99.7672 55.6114 99.8342 55.4104 99.8342 55.1424L100.102 53.4004H96.1491C95.9481 55.2094 95.7471 56.3484 95.3451 58.2915L93 69.2127H97.1541L98.4942 62.8476C99.3652 58.7605 100.906 56.9514 103.653 56.9514C104.256 56.9514 104.524 57.0184 105.127 57.2194L105.931 53.4004C105.462 53.2663 105.127 53.2663 104.658 53.2663ZM117.858 53.4004L116.451 59.8995C115.982 61.9766 115.647 63.1156 115.178 63.9196C114.374 65.3266 113.034 66.1977 111.827 66.1977C110.554 66.1977 109.616 65.1926 109.616 63.7856C109.616 63.2496 109.75 62.2446 110.018 61.1055L111.626 53.3333H107.472C105.797 61.1725 105.462 62.8476 105.462 64.5226C105.462 67.5377 107.405 69.4808 110.554 69.4808C112.632 69.4808 114.106 68.6767 115.379 66.7337V66.9347L115.312 67.1357C115.312 67.1357 115.312 67.2697 115.245 67.4707L114.91 69.1457H118.796C118.863 68.3417 119.064 67.3367 119.466 65.4607L122.012 53.3333H117.858V53.4004ZM135.747 55.4104C135.747 55.5444 135.68 55.7454 135.68 55.7454V55.9464C135.68 55.9464 135.68 56.1474 135.613 56.3484L135.546 56.0804C135.01 54.0034 133.335 53.0653 130.856 53.0653C128.444 53.0653 126.367 54.0704 124.96 55.9464C123.62 57.8225 122.816 60.2345 122.816 62.7136C122.816 66.5997 125.027 69.1457 128.444 69.1457C130.923 69.1457 132.732 68.0737 133.737 65.9297L133.871 65.9967L133.737 66.4657C133.603 66.8007 133.536 67.0687 133.536 67.1357C133 69.1457 132.799 69.7488 132.263 70.6198C131.325 72.1608 129.985 72.8308 127.774 72.8308C126.032 72.8308 124.692 72.4958 122.816 71.4908L121.744 74.9079C123.62 75.7119 125.563 76.1139 127.573 76.1139C130.186 76.1139 132.464 75.3769 134.005 74.0369C135.479 72.6968 136.417 70.8878 137.087 67.8057L139.499 56.3484L139.7 55.5444L139.834 54.7404C139.901 54.5394 139.901 54.4054 140.169 53.4674H136.149L135.747 55.4104ZM129.784 65.9967C128.109 65.9967 127.104 64.7236 127.104 62.5796C127.104 59.0955 128.98 56.4824 131.526 56.4824C133.469 56.4824 134.474 57.7555 134.474 60.1675C134.474 63.3166 132.33 65.9967 129.784 65.9967ZM161.275 53.2663C160.27 53.2663 159.734 53.8694 159.533 55.0084C160.337 55.2764 160.806 55.8794 160.806 56.7504C160.806 57.8895 160.27 59.3635 159.265 61.3065C158.26 63.1826 156.92 65.1256 155.312 67.0687H155.111C155.111 63.2496 154.91 58.8275 154.508 53.6684L152.095 53.8024C150.286 58.0235 148.142 62.3786 145.596 66.8677H145.462C145.462 62.1106 145.462 57.6215 145.395 53.5344H140.973L140.571 54.7404H140.839C141.576 54.7404 142.112 54.9414 142.38 55.2764C142.648 55.6114 142.782 56.1474 142.782 56.8174L142.983 69.4137L145.998 69.0787C149.214 62.9816 151.291 58.8945 152.162 56.8174L152.631 69.4808L155.513 69.1457C160.404 62.7806 162.816 58.2245 162.816 55.4104C162.816 54.0034 162.28 53.2663 161.275 53.2663ZM175.948 67.6717C175.278 67.6717 175.01 67.2027 175.01 66.1977C175.01 65.3936 175.144 64.3216 175.412 62.9816L177.422 53.6014H176.484L175.211 54.3384C174.273 53.6014 173.134 53.2663 171.794 53.2663C169.315 53.2663 167.238 54.4054 165.563 56.6834C163.888 58.9615 163.084 61.4406 163.084 64.1206C163.084 65.7957 163.419 67.1357 164.089 68.0737C164.759 69.0117 165.697 69.4808 166.836 69.4808C169.114 69.4808 170.923 67.9397 172.33 64.7906H172.531C172.33 65.6617 172.263 66.4657 172.263 67.0687C172.263 68.6767 173 69.4808 174.541 69.4808C175.881 69.4808 177.288 68.8777 178.695 67.7387L178.159 66.8677C177.154 67.4707 176.484 67.6717 175.948 67.6717ZM173 60.8375C172.665 62.5126 171.928 64.1206 170.856 65.5277C169.784 66.9347 168.779 67.6717 167.774 67.6717C166.568 67.6717 165.965 66.5327 165.965 64.3216C165.965 62.1106 166.501 59.8995 167.64 57.8225C168.779 55.6784 170.186 54.6734 171.861 54.6734C172.866 54.6734 173.603 55.0084 174.072 55.7454L173 60.8375ZM185.797 49.9833H184.457C183.385 52.7303 181.911 54.0704 179.968 54.0704L179.7 55.2094H181.911L180.102 63.6516C179.901 64.5226 179.834 65.3937 179.834 66.1307C179.834 68.4087 180.906 69.5478 183.05 69.5478C184.39 69.5478 185.663 69.0787 187.003 68.1407L186.534 67.0687C185.73 67.4707 184.926 67.7387 184.122 67.7387C183.117 67.7387 182.581 67.2027 182.581 66.1307C182.581 65.5947 182.715 64.7236 182.916 63.6516L184.658 55.3434H188.209L188.544 53.6684H184.993L185.797 49.9833ZM200.538 54.0704C199.801 53.5344 198.729 53.2663 197.389 53.2663C194.843 53.2663 192.765 54.3384 191.157 56.4824C189.482 58.6265 188.678 60.9715 188.678 63.5176C188.678 65.3936 189.214 66.8677 190.219 67.9397C191.291 69.0117 192.632 69.5478 194.374 69.5478C195.915 69.5478 197.121 69.2127 198.059 68.5427C198.997 67.8727 199.466 67.1357 199.466 66.3317C199.466 65.9967 199.399 65.7287 199.198 65.5947C198.126 67.0017 196.719 67.6717 194.977 67.6717C192.833 67.6717 191.76 66.3317 191.76 63.7186C191.76 61.7756 192.296 59.7655 193.302 57.7555C194.307 55.7454 195.513 54.6734 196.853 54.6734C197.59 54.6734 198.126 55.0084 198.528 55.6114C198.93 56.2144 199.131 57.0854 199.131 58.0905C199.935 58.0905 200.538 57.8895 201.007 57.4875C201.476 57.0854 201.744 56.6164 201.744 56.0134C201.677 55.2764 201.275 54.6064 200.538 54.0704ZM215.546 67.6717C214.876 67.6717 214.541 67.2027 214.541 66.2647C214.541 65.3937 214.675 64.3886 214.943 63.1826L215.68 59.6985C216.015 58.1575 216.216 57.0854 216.216 56.4824C216.216 54.3384 215.144 53.2663 213.067 53.2663C211.057 53.2663 209.248 54.6064 207.64 57.2194H207.305C207.707 55.6114 208.109 53.9364 208.444 52.3953L209.583 47.0352H204.223L203.955 48.2412H204.156C205.496 48.2412 206.233 48.7102 206.233 49.5813C206.233 49.7823 206.166 50.2513 205.965 51.1223L202.146 69.2127H204.893L206.434 61.7086C206.769 60.3015 207.439 58.8275 208.578 57.3534C209.717 55.8794 210.856 55.1424 211.928 55.1424C212.799 55.1424 213.268 55.7454 213.268 56.8844C213.268 57.5545 213.134 58.4255 212.866 59.6315L212.196 62.6466C211.794 64.3886 211.66 65.7287 211.66 66.5997C211.66 67.4707 211.928 68.2077 212.397 68.7437C212.866 69.2797 213.536 69.5478 214.34 69.5478C215.412 69.5478 216.618 69.0117 217.891 67.8727L217.355 67.0017C216.752 67.4707 216.149 67.6717 215.546 67.6717ZM222.983 64.1206C221.241 64.1206 219.901 65.5277 219.901 67.2027C219.901 68.9447 221.308 70.2848 222.983 70.2848C224.725 70.2848 226.065 68.8777 226.065 67.2027C226.065 65.5277 224.725 64.1206 222.983 64.1206ZM222.983 69.8158C221.576 69.8158 220.37 68.6767 220.37 67.2027C220.37 65.7287 221.509 64.5896 222.983 64.5896C224.457 64.5896 225.596 65.7287 225.596 67.2027C225.596 68.6767 224.39 69.8158 222.983 69.8158Z" fill="white"/>
<path d="M224.323 68.7437C224.256 68.6767 224.189 68.4757 224.122 68.3417C223.921 68.0067 223.787 67.8727 223.653 67.7387C223.519 67.6047 223.452 67.5377 223.318 67.4707L223.251 67.4037H223.318C223.586 67.3367 223.787 67.2697 223.988 67.0687C224.122 66.8677 224.256 66.6667 224.256 66.4657C224.256 66.3317 224.256 66.1977 224.189 66.0637C224.122 65.9967 224.122 65.8627 223.988 65.7957C223.854 65.6617 223.653 65.5947 223.385 65.5276H221.643V68.8777H222.179V67.4037H222.38C222.648 67.4037 222.715 67.4037 222.849 67.4707C222.983 67.5377 223.117 67.6717 223.251 67.8727C223.318 68.0067 223.385 68.0737 223.586 68.4757C223.586 68.4757 223.653 68.5427 223.653 68.6097C223.653 68.6097 223.72 68.6767 223.72 68.7437L223.787 68.8107H224.457C224.39 68.8777 224.39 68.8107 224.323 68.7437ZM223.05 67.0687H222.179V65.9967H223.184C223.318 65.9967 223.385 65.9967 223.452 66.0637C223.586 66.1307 223.653 66.1977 223.72 66.3987V66.5327C223.72 66.6667 223.653 66.7337 223.586 66.8677C223.519 66.9347 223.519 66.9347 223.452 66.9347C223.318 67.0017 223.251 67.0017 223.05 67.0687Z" fill="white"/>
</svg>
