<svg xmlns="http://www.w3.org/2000/svg" viewBox="0 0 320 60"><style>.st2{fill:#fff}</style><g id="Layer_2"><path class="st2" d="M42.4 8.2c11.6 0 21.1 9.1 21.7 20.6h19.8C80.2 23.4 63 .2 42.4.2S4.7 23.4 1 28.9h19.8c.5-11.5 10-20.7 21.6-20.7zm0 43.6c-11.6 0-21.1-9.1-21.7-20.6H1c3.7 5.4 20.9 28.7 41.5 28.7S80.3 36.7 84 31.2H64.2c-.6 11.4-10.1 20.6-21.8 20.6z"/><path class="st2" d="M44.6 17.4L29.8 32.2c-2.8 2.8-2.8 7.5 0 10.3l.1.1c2.8 2.8 7.5 2.8 10.3 0L55 27.8c2.8-2.8 2.8-7.5 0-10.3l-.1-.1c-2.8-2.8-7.5-2.8-10.3 0zm2.5 2.6l-7.3 7.3 6.5 6.5-7.4 7.4c-2.1 2.1-5.4 2.1-7.5 0l-.1-.1c-2.1-2.1-2.1-5.4 0-7.5l7.1-7.1 7.7-7.6c2.2-2.1 5.7-2.1 7.8 0l.1.1c.2.2.3.4.5.6-2.3-1.7-5.5-1.5-7.4.4zm69.5-10.5L114.3 20c-.5 2.2-.4 2.2-.5 2.6 0 .2 0 .6-.1 1.1 0 .1 0 .5-.1.8-.5-1.5-.9-2.2-1.7-2.9-1.2-1.1-3.3-1.8-5.4-1.8-3.4 0-6.6 1.5-8.6 4.2-2.2 2.8-3.4 6.7-3.4 10.4 0 5.9 3.4 9.7 8.4 9.7 3.2 0 5.9-1.5 7.5-4.3h.1c0 .1-.1.2-.2.7l-.6 3.2h5.8c.4-2.7.3-2.7.9-5.3l6.2-29.1h-6zm-11.8 30c-2.3 0-3.9-2.1-3.9-5 0-2 .6-4.4 1.5-6.1 1.2-2.3 3-3.5 5.2-3.5 2.8 0 4.4 1.9 4.4 5.4-.1 4.8-3.4 9.2-7.2 9.2zm33-19.5c-3.3 0-5.5 1.4-7.5 4.9 0-.3.1-.7.1-.7l.1-.6c0-.1.1-.4.1-.8l.4-2.6h-5.9c-.3 2.7-.6 4.4-1.2 7.3l-3.5 16.3h6.2l2-9.5c1.3-6.1 3.6-8.8 7.7-8.8.9 0 1.3.1 2.2.4l1.2-5.7c-.7-.2-1.2-.2-1.9-.2zm19.7.2l-2.1 9.7c-.7 3.1-1.2 4.8-1.9 6-1.2 2.1-3.2 3.4-5 3.4-1.9 0-3.3-1.5-3.3-3.6 0-.8.2-2.3.6-4l2.4-11.6H142c-2.5 11.7-3 14.2-3 16.7 0 4.5 2.9 7.4 7.6 7.4 3.1 0 5.3-1.2 7.2-4.1v.3l-.1.3s0 .2-.1.5l-.5 2.5h5.8c.1-1.2.4-2.7 1-5.5l3.8-18.1h-6.2zm26.7 3c0 .2-.1.5-.1.5v.3s0 .3-.1.6l-.1-.4c-.8-3.1-3.3-4.5-7-4.5-3.6 0-6.7 1.5-8.8 4.3-2 2.8-3.2 6.4-3.2 10.1 0 5.8 3.3 9.6 8.4 9.6 3.7 0 6.4-1.6 7.9-4.8l.2.1-.2.7c-.2.5-.3.9-.3 1-.8 3-1.1 3.9-1.9 5.2-1.4 2.3-3.4 3.3-6.7 3.3-2.6 0-4.6-.5-7.4-2l-1.6 5.1c2.8 1.2 5.7 1.8 8.7 1.8 3.9 0 7.3-1.1 9.6-3.1 2.2-2 3.6-4.7 4.6-9.3l3.6-17.1.3-1.2.2-1.2c.1-.3.1-.5.5-1.9h-6l-.6 2.9zM175.3 39c-2.5 0-4-1.9-4-5.1 0-5.2 2.8-9.1 6.6-9.1 2.9 0 4.4 1.9 4.4 5.5 0 4.7-3.2 8.7-7 8.7zm47-19c-1.5 0-2.3.9-2.6 2.6 1.2.4 1.9 1.3 1.9 2.6 0 1.7-.8 3.9-2.3 6.8-1.5 2.8-3.5 5.7-5.9 8.6h-.3c0-5.7-.3-12.3-.9-20l-3.6.2c-2.7 6.3-5.9 12.8-9.7 19.5h-.2c0-7.1 0-13.8-.1-19.9H192l-.6 1.8h.4c1.1 0 1.9.3 2.3.8.4.5.6 1.3.6 2.3l.3 18.8 4.5-.5c4.8-9.1 7.9-15.2 9.2-18.3l.7 18.9 4.3-.5c7.3-9.5 10.9-16.3 10.9-20.5 0-2.1-.8-3.2-2.3-3.2zm21.9 21.5c-1 0-1.4-.7-1.4-2.2 0-1.2.2-2.8.6-4.8l3-14H245l-1.9 1.1c-1.4-1.1-3.1-1.6-5.1-1.6-3.7 0-6.8 1.7-9.3 5.1-2.5 3.4-3.7 7.1-3.7 11.1 0 2.5.5 4.5 1.5 5.9 1 1.4 2.4 2.1 4.1 2.1 3.4 0 6.1-2.3 8.2-7h.3c-.3 1.3-.4 2.5-.4 3.4 0 2.4 1.1 3.6 3.4 3.6 2 0 4.1-.9 6.2-2.6l-.8-1.3c-1.5.9-2.5 1.2-3.3 1.2zm-4.4-10.2c-.5 2.5-1.6 4.9-3.2 7-1.6 2.1-3.1 3.2-4.6 3.2-1.8 0-2.7-1.7-2.7-5s.8-6.6 2.5-9.7c1.7-3.2 3.8-4.7 6.3-4.7 1.5 0 2.6.5 3.3 1.6l-1.6 7.6zm19.1-16.2h-2c-1.6 4.1-3.8 6.1-6.7 6.1l-.4 1.7h3.3l-2.7 12.6c-.3 1.3-.4 2.6-.4 3.7 0 3.4 1.6 5.1 4.8 5.1 2 0 3.9-.7 5.9-2.1l-.7-1.6c-1.2.6-2.4 1-3.6 1-1.5 0-2.3-.8-2.3-2.4 0-.8.2-2.1.5-3.7l2.6-12.4h5.3l.5-2.5h-5.3l1.2-5.5zm22 6.1c-1.1-.8-2.7-1.2-4.7-1.2-3.8 0-6.9 1.6-9.3 4.8-2.5 3.2-3.7 6.7-3.7 10.5 0 2.8.8 5 2.3 6.6 1.6 1.6 3.6 2.4 6.2 2.4 2.3 0 4.1-.5 5.5-1.5 1.4-1 2.1-2.1 2.1-3.3 0-.5-.1-.9-.4-1.1-1.6 2.1-3.7 3.1-6.3 3.1-3.2 0-4.8-2-4.8-5.9 0-2.9.8-5.9 2.3-8.9 1.5-3 3.3-4.6 5.3-4.6 1.1 0 1.9.5 2.5 1.4.6.9.9 2.2.9 3.7 1.2 0 2.1-.3 2.8-.9.7-.6 1.1-1.3 1.1-2.2-.1-1.1-.7-2.1-1.8-2.9zm22.4 20.3c-1 0-1.5-.7-1.5-2.1 0-1.3.2-2.8.6-4.6l1.1-5.2c.5-2.3.8-3.9.8-4.8 0-3.2-1.6-4.8-4.7-4.8-3 0-5.7 2-8.1 5.9h-.5c.6-2.4 1.2-4.9 1.7-7.2l1.7-8h-8l-.4 1.8h.3c2 0 3.1.7 3.1 2 0 .3-.1 1-.4 2.3l-5.7 27h4.1l2.3-11.2c.5-2.1 1.5-4.3 3.2-6.5 1.7-2.2 3.4-3.3 5-3.3 1.3 0 2 .9 2 2.6 0 1-.2 2.3-.6 4.1l-1 4.5c-.6 2.6-.8 4.6-.8 5.9 0 1.3.4 2.4 1.1 3.2.7.8 1.7 1.2 2.9 1.2 1.6 0 3.4-.8 5.3-2.5l-.8-1.3c-.9.7-1.8 1-2.7 1zm11.1-5.3c-2.6 0-4.6 2.1-4.6 4.6 0 2.6 2.1 4.6 4.6 4.6 2.6 0 4.6-2.1 4.6-4.6 0-2.5-2-4.6-4.6-4.6zm0 8.5c-2.1 0-3.9-1.7-3.9-3.9s1.7-3.9 3.9-3.9 3.9 1.7 3.9 3.9-1.8 3.9-3.9 3.9z"/><path class="st2" d="M316.4 43.1c-.1-.1-.2-.4-.3-.6-.3-.5-.5-.7-.7-.9-.2-.2-.3-.3-.5-.4l-.1-.1h.1c.4-.1.7-.2 1-.5.2-.3.4-.6.4-.9 0-.2 0-.4-.1-.6-.1-.1-.1-.3-.3-.4-.2-.2-.5-.3-.9-.4h-2.6v5h.8v-2.2h.3c.4 0 .5 0 .7.1.2.1.4.3.6.6.1.2.2.3.5.9 0 0 .1.1.1.2 0 0 .1.1.1.2l.1.1h1c-.1.1-.1 0-.2-.1zm-1.9-2.5h-1.3V39h1.5c.2 0 .3 0 .4.1.2.1.3.2.4.5v.2c0 .2-.1.3-.2.5-.1.1-.1.1-.2.1-.2.1-.3.1-.6.2z"/></g></svg>