<svg version="1.1" id="Layer_1" xmlns="http://www.w3.org/2000/svg" xmlns:xlink="http://www.w3.org/1999/xlink" x="0px" y="0px" width="553.335px" height="380px" viewBox="0 0 553.335 380" enable-background="new 0 0 553.335 380" xml:space="preserve">
<g>
	<g>
		<path class="jlw" d="M281.847,66.733c0-29.603,23.319-53.254,52.472-53.254c29.272,0,52.757,23.651,52.757,53.254
			c0,29.438-23.484,53.244-52.757,53.244C305.166,119.977,281.847,96.17,281.847,66.733z M334.451,17.831
			c-26.354,0-47.799,21.904-47.799,48.902c0,26.839,21.444,48.733,47.799,48.733c26.243,0,47.845-21.894,47.68-48.733
			C382.131,39.589,360.833,17.831,334.451,17.831z"></path>
		<path class="jlw" d="M151.579,307.841c0-29.617,23.34-53.262,52.459-53.262c29.285,0,52.79,23.645,52.79,53.262
			c0,29.434-23.505,53.243-52.79,53.243C174.919,361.084,151.579,337.274,151.579,307.841z M204.19,258.938
			c-26.361,0-47.799,21.891-47.799,48.902c0,26.828,21.438,48.723,47.799,48.723c26.229,0,47.825-21.895,47.673-48.723
			C251.863,280.68,230.559,258.938,204.19,258.938z"></path>
		<path class="jlw" d="M535.196,197.299H466.79v39.022h10.851v4.232h-26.853v-4.232h11.216v-97.854h-11.216v-4.408h26.853v4.408
			H466.79v54.775h68.406v-54.775h-11.023v-4.408h26.833v4.408h-10.845v97.854h10.845v4.232h-26.833v-4.232h11.023V197.299z"></path>
		<path class="jlw" d="M235.887,133.95v28.682h-3.514l-2.194-24.28h-72.814v54.663h35.118v-14.341h4.229v33.281h-4.229v-15.258
			h-35.118v39.512h73.902l2.048-24.82h3.871v29.061h-95.637v-4.24h10.831v-97.857h-10.831v-4.401H235.887z"></path>
		<path class="jlw" d="M207.239,248.69v32.002H104.563v-4.234h10.479V138.377h-10.479v-4.411h26.315v4.411h-10.864v138.081
			h81.146l2.937-27.768H207.239z"></path>
		<path class="jlw" d="M269.681,317.869v38.983h10.838v4.231h-25.752v-4.231h10.128V259.21h-10.128v-4.422h49.854
			c11.766,0,18.56,2.025,24.466,7.172c6.052,5.336,9.373,13.6,9.373,22.988c0,20.228-11.951,31.632-34.019,32.729l38.983,55.537
			h11.58v4.232h-14.709l-41.184-59.577H269.681z M269.681,313.815h29.431c12.31,0,20.031-2.2,25.54-6.992
			c5.899-5.333,9.008-12.684,9.008-21.875c0-17.102-9.717-25.738-29.039-25.738h-34.939V313.815z"></path>
		<path class="jlw" d="M535.184,318.145H466.79v38.708h10.838v4.231h-26.826v-4.231h11.202v-97.852h-11.202v-4.422h26.826v4.422
			H466.79v55.097h68.394v-55.097h-11.011v-4.422h26.833v4.422h-10.845v97.852h10.845v4.231h-26.833v-4.231h11.011V318.145z"></path>
		<path class="jlw" d="M445.878,254.579v28.689h-3.686l-1.645-24.268h-42.495v97.852h11.229v4.231h-26.667v-4.231h10.474v-97.852
			h-42.099l-2.028,24.268h-3.32v-28.689H445.878z"></path>
		<path class="jlw" d="M352.238,134.053v28.685h-3.692l-1.638-24.281h-42.489v97.857h11.216v4.229h-26.66v-4.229h10.48v-97.857
			h-45.002l-2.002,24.281h-3.308v-28.685H352.238z"></path>
		<path class="jlw" d="M408.139,138.49c9.426,0.325,17.228,2.602,23.704,6.857c7.172,4.776,10.108,10.483,11.388,20.963h2.585
			V137.44h-4.229v11.583c-5.899-6.986-8.842-9.187-16.372-11.769c-5.131-1.77-12.157-3.079-17.605-3.079
			c-28.324,0-51.212,24.946-51.212,53.125c0,29.434,23.332,53.244,52.472,53.244c14.33,0,25.348-4.229,36.947-13.784v-16.372h-2.585
			c-0.358,7.172-1.459,11.4-3.686,14.344c-5.144,6.805-17.931,11.309-30.531,11.309c-25.428,0-47.832-21.901-47.832-48.74
			C361.182,160.603,382.181,138.964,408.139,138.49z"></path>
		<path class="jlw" d="M535.196,76.168H466.79v39.022h10.851v4.232h-26.865v-4.232h11.229V17.333h-11.229v-4.401h26.865v4.401
			H466.79v54.785h68.406V17.333h-11.029v-4.401h26.839v4.401h-10.831v97.857h10.831v4.232h-26.839v-4.232h11.029V76.168z"></path>
	</g>
	<polygon class="jlw" points="535.196,76.168 466.79,76.168 466.79,115.191 477.641,115.191 477.641,119.423 450.775,119.423
		450.775,115.191 462.004,115.191 462.004,17.333 450.775,17.333 450.775,12.932 477.641,12.932 477.641,17.333 466.79,17.333
		466.79,72.119 535.196,72.119 535.196,17.333 524.167,17.333 524.167,12.932 551.006,12.932 551.006,17.333 540.175,17.333
		540.175,115.191 551.006,115.191 551.006,119.423 524.167,119.423 524.167,115.191 535.196,115.191 	"></polygon>
	<path class="jlw" d="M433.176,17.335c-5.547-0.001-17.283-0.001-40.874-0.002v15.922c0.179,5.525,1.471,10.118,4.222,14.351
		c3.858,6.059,9.937,10.109,22.252,15.259c15.836,6.622,21.51,10.108,25.732,15.815c3.327,4.594,5.15,11.033,5.15,17.831
		c0,18.573-13.23,32.185-31.426,32.185c-10.672,0-17.851-3.676-26.481-13.426l-1.465,11.222h-3.327V94.861h3.327
		c0.908,11.219,3.666,17.105,10.479,22.802c5.144,4.415,11.216,6.615,17.632,6.615c15.279,0,26.31-11.769,26.31-27.767
		c0-5.515-1.286-10.844-3.865-14.526c-3.665-5.515-8.822-8.826-22.975-14.527c-13.436-5.333-20.436-10.108-25.009-16.545
		c-3.514-4.786-5.343-10.476-5.343-17.287V12.932h54.071l-0.001-8.247h4.23v28.374h-2.586c-0.557-4.563-1.428-8.222-2.827-11.292
		C439.276,19.293,437.901,17.336,433.176,17.335z"></path>
	<polygon class="jlw" points="141.549,246.513 141.549,250.917 153.115,250.917 115.982,357.405 87.844,246.513 83.436,246.513
		55.297,357.405 18.164,250.917 29.73,250.917 29.73,246.513 2.328,246.513 2.328,250.917 12.834,250.917 54.184,369.154
		57.511,369.154 85.64,255.701 113.769,369.154 117.096,369.154 158.445,250.917 168.951,250.917 168.951,246.513 	"></polygon>
	<path class="jlw" d="M267.062,159.887V6.963h-11.6V2.552h27.767v4.411h-11.222v152.924h0.007
		c0,18.573-13.23,32.185-31.426,32.185c-10.672,0-17.851-3.676-26.481-13.426l-1.465,11.222h-3.327v-31.631h3.327
		c0.908,11.219,3.666,17.105,10.479,22.802c5.144,4.415,11.216,6.615,17.632,6.615C256.032,187.654,267.062,175.885,267.062,159.887
		L267.062,159.887z"></path>
</g>
</svg>
