<svg width="240" height="120" viewBox="0 0 240 120" fill="none" xmlns="http://www.w3.org/2000/svg">
<path d="M121.471 20.5437C121.471 11.0681 128.936 3.49762 138.267 3.49762C147.637 3.49762 155.154 11.0681 155.154 20.5437C155.154 29.9665 147.637 37.5866 138.267 37.5866C128.936 37.5866 121.471 29.9662 121.471 20.5437ZM138.309 4.89065C129.874 4.89065 123.009 11.9019 123.009 20.5437C123.009 29.1346 129.873 36.1427 138.309 36.1427C146.71 36.1427 153.624 29.1346 153.571 20.5437C153.571 11.8552 146.754 4.89065 138.309 4.89065Z" fill="white"/>
<path d="M79.7738 97.72C79.7738 88.2399 87.2447 80.6714 96.5654 80.6714C105.939 80.6714 113.463 88.2399 113.463 97.72C113.463 107.142 105.939 114.763 96.5654 114.763C87.2447 114.763 79.7738 107.141 79.7738 97.72ZM96.6141 82.0667C88.1762 82.0667 81.3141 89.0738 81.3141 97.7197C81.3141 106.307 88.1762 113.315 96.6141 113.315C105.01 113.315 111.922 106.307 111.874 97.7197C111.874 89.0261 105.055 82.0667 96.6141 82.0667Z" fill="white"/>
<path d="M202.566 62.3366H180.67V74.8272H184.143V76.1818H175.548V74.8272H179.138V43.5051H175.548V42.0941H184.143V43.5051H180.67V61.038H202.566V43.5051H199.038V42.0941H207.627V43.5051H204.155V74.8272H207.627V76.1818H199.038V74.8272H202.566V62.3366Z" fill="white"/>
<path d="M106.76 42.0593V51.2401H105.635L104.933 43.4683H81.6258V60.9654H92.8668V56.375H94.2204V67.0279H92.8668V62.144H81.6258V74.7914H105.281L105.937 66.8468H107.176V76.1489H76.5633V74.7917H80.0302V43.4686H76.5633V42.0599H106.76V42.0593Z" fill="white"/>
<path d="M97.59 78.7864V89.0299H64.7244V87.6747H68.0787V43.4762H64.7244V42.0643H73.1476V43.4762H69.6701V87.6747H95.6442L96.5843 78.7864H97.59Z" fill="white"/>
<path d="M117.577 100.93V113.408H121.046V114.762H112.803V113.408H116.045V82.1537H112.803V80.7383H128.761C132.527 80.7383 134.702 81.3865 136.592 83.034C138.53 84.742 139.593 87.3872 139.593 90.3922C139.593 96.867 135.767 100.517 128.703 100.868L141.182 118.645H144.888V120H140.18L126.997 100.93H117.577ZM117.577 99.6323H126.998C130.938 99.6323 133.409 98.9281 135.173 97.3942C137.061 95.6871 138.056 93.3342 138.056 90.3922C138.056 84.918 134.946 82.1537 128.761 82.1537H117.577V99.6323H117.577Z" fill="white"/>
<path d="M202.562 101.018H180.67V113.408H184.139V114.763H175.552V113.408H179.138V82.0868H175.552V80.6714H184.139V82.0868H180.67V99.7228H202.562V82.0868H199.038V80.6714H207.627V82.0868H204.155V113.408H207.627V114.763H199.038V113.408H202.562V101.018Z" fill="white"/>
<path d="M173.976 80.6714V89.8545H172.796L172.27 82.0865H158.668V113.408H162.262V114.762H153.726V113.408H157.079V82.0865H143.603L142.954 89.8545H141.891V80.6714H173.976Z" fill="white"/>
<path d="M144.003 42.0922V51.274H142.821L142.297 43.5019H128.696V74.825H132.287V76.1787H123.753V74.825H127.107V43.5019H112.703L112.062 51.274H111.003V42.0922H144.003Z" fill="white"/>
<path d="M161.896 43.5124C164.913 43.6164 167.411 44.3453 169.484 45.7073C171.779 47.236 172.719 49.0628 173.129 52.4173H173.956V43.1763H172.603V46.8839C170.714 44.6478 169.772 43.9433 167.362 43.1168C165.72 42.5502 163.471 42.1312 161.727 42.1312C152.661 42.1312 145.334 50.1162 145.334 59.136C145.334 68.5576 152.803 76.1789 162.13 76.1789C166.717 76.1789 170.244 74.8253 173.957 71.7668V66.5263H173.129C173.015 68.822 172.662 70.1753 171.949 71.1177C170.303 73.2959 166.21 74.7376 162.177 74.7376C154.037 74.7376 146.866 67.7273 146.866 59.1363C146.866 50.5906 153.587 43.6641 161.896 43.5124Z" fill="white"/>
<path d="M202.566 23.5638H180.67V36.0543H184.143V37.4089H175.544V36.0543H179.138V4.73123H175.544V3.32251H184.143V4.73123H180.67V22.2674H202.566V4.73123H199.036V3.32251H207.627V4.73123H204.16V36.0543H207.627V37.4089H199.036V36.0543H202.566V23.5638Z" fill="white"/>
<path d="M202.566 23.5638H180.67V36.0546H184.143V37.4093H175.544V36.0546H179.138V4.73123H175.544V3.32251H184.143V4.73123H180.67V22.2677H202.566V4.73123H199.036V3.32251H207.627V4.73123H204.16V36.0546H207.627V37.4093H199.036V36.0546H202.566V23.5638Z" fill="white"/>
<path d="M169.91 4.73188C168.135 4.73156 164.378 4.73156 156.827 4.73124V9.82772C156.884 11.5962 157.298 13.0664 158.178 14.4213C159.413 16.3608 161.359 17.6571 165.301 19.3056C170.37 21.4252 172.186 22.5411 173.538 24.3678C174.603 25.8383 175.186 27.8994 175.186 30.0754C175.186 36.0204 170.951 40.3775 165.127 40.3775C161.711 40.3775 159.413 39.2008 156.651 36.0799L156.182 39.672H155.117V29.5472H156.182C156.472 33.1383 157.355 35.0224 159.536 36.8459C161.182 38.2591 163.126 38.9633 165.18 38.9633C170.07 38.9633 173.601 35.1962 173.601 30.0754C173.601 28.3101 173.19 26.6043 172.364 25.4257C171.191 23.6604 169.54 22.6006 165.01 20.7758C160.709 19.0687 158.469 17.5403 157.005 15.4799C155.88 13.9479 155.295 12.1266 155.295 9.94648V3.32253H172.602L172.602 0.682739H173.956V9.76499H173.128C172.95 8.30441 172.671 7.1332 172.223 6.15052C171.863 5.35862 171.423 4.7322 169.91 4.73188Z" fill="white"/>
<path d="M76.5633 78.0896V79.4993H80.2655L68.3796 113.585L59.3729 78.0896H57.9619L48.9549 113.585L37.069 79.4993H40.7711V78.0896H32V79.4993H35.3629L48.5986 117.346H49.6636L58.6674 81.0306L67.6712 117.346H68.7361L81.9716 79.4993H85.3344V78.0896H76.5633Z" fill="white"/>
<path d="M116.739 50.3614V1.41192H113.026V0H121.914V1.41192H118.322V50.3614H118.324C118.324 56.3065 114.089 60.6635 108.265 60.6635C104.849 60.6635 102.551 59.4869 99.7884 56.366L99.3195 59.9581H98.2546V49.8333H99.3195C99.6102 53.4244 100.493 55.3084 102.674 57.132C104.32 58.5452 106.264 59.2494 108.318 59.2494C113.208 59.2494 116.739 55.4822 116.739 50.3614Z" fill="white"/>
</svg>
