<svg width="240" height="120" viewBox="0 0 240 120" fill="none" xmlns="http://www.w3.org/2000/svg">
<path d="M59 75.6235V44H65.4416V57.0334H67.1083L75.2617 44H82.2213L71.4327 60.5572V58.208L82.6718 75.6235H75.6446L67.1083 61.7769H65.4416V75.6235H59Z" fill="white"/>
<path d="M88.9958 75.6235V44H100.145C100.896 44 101.729 44.0527 102.645 44.1581C103.561 44.2485 104.469 44.4442 105.37 44.7454C106.286 45.0315 107.119 45.4607 107.87 46.0329C108.621 46.6052 109.222 47.3581 109.672 48.2918C110.138 49.2104 110.37 50.3548 110.37 51.7252C110.37 53.2762 110.085 54.5788 109.514 55.6329C108.959 56.672 108.283 57.4701 107.487 58.0273C106.706 58.5845 105.978 58.9082 105.303 58.9986C105.918 59.0588 106.594 59.2471 107.33 59.5633C108.08 59.8795 108.786 60.3388 109.447 60.9412C110.107 61.5435 110.648 62.3191 111.068 63.2678C111.504 64.2014 111.722 65.3308 111.722 66.656C111.722 68.6136 111.324 70.2626 110.528 71.6028C109.747 72.928 108.666 73.9294 107.285 74.6071C105.903 75.2847 104.319 75.6235 102.532 75.6235H88.9958ZM95.4375 70.8574H100.122C101.098 70.8574 101.969 70.7068 102.735 70.4056C103.516 70.1045 104.124 69.6151 104.559 68.9374C105.01 68.2598 105.235 67.3487 105.235 66.2042C105.235 64.9694 104.98 64.0282 104.469 63.3807C103.974 62.7181 103.336 62.2739 102.555 62.048C101.774 61.8071 100.956 61.6866 100.1 61.6866H95.4375V70.8574ZM95.4375 56.9431H99.3565C100.257 56.9431 101.061 56.8 101.766 56.5139C102.487 56.2127 103.05 55.7534 103.456 55.136C103.876 54.5035 104.086 53.6904 104.086 52.6965C104.086 51.9134 103.974 51.2734 103.748 50.7765C103.538 50.2795 103.223 49.8805 102.802 49.5793C102.382 49.2781 101.872 49.0673 101.271 48.9468C100.685 48.8264 100.017 48.7661 99.2663 48.7661H95.4375V56.9431Z" fill="white"/>
<path d="M118.474 75.6235V70.8574L132.235 48.7661H118.834V44H138.677V48.7661L124.87 70.8574H139.105V75.6235H118.474Z" fill="white"/>
<path d="M167.118 75.6235L162.569 52.5609L161.803 44.1129H165.384L171.195 71.5802L170.272 75.6235H167.118ZM149.956 75.6235L144.821 44H151.6L154.64 71.3769L155.249 75.6235H149.956ZM154.708 75.6235L153.942 71.5802L159.798 44.1129H163.424L162.839 52.5609L158.087 75.6235H154.708ZM169.731 75.6235L170.474 71.3769L173.627 44H180.407L175.249 75.6235H169.731Z" fill="white"/>
</svg>
