<svg width="130" height="34" viewBox="0 0 130 34" fill="none" xmlns="http://www.w3.org/2000/svg">
<path d="M0 33.6V0H6.864V13.848H8.64L17.328 0H24.744L13.248 17.592V15.096L25.224 33.6H17.736L8.64 18.888H6.864V33.6H0Z" fill="black"/>
<path d="M31.9627 33.6V0H43.8428C44.6428 0 45.5308 0.0560007 46.5068 0.168002C47.4828 0.264001 48.4508 0.472 49.4108 0.792C50.3868 1.096 51.2747 1.552 52.0747 2.16C52.8748 2.768 53.5148 3.568 53.9948 4.56C54.4908 5.536 54.7388 6.752 54.7388 8.208C54.7388 9.856 54.4348 11.24 53.8268 12.36C53.2348 13.464 52.5148 14.312 51.6668 14.904C50.8348 15.496 50.0588 15.84 49.3388 15.936C49.9948 16 50.7147 16.2 51.4987 16.536C52.2987 16.872 53.0508 17.36 53.7548 18C54.4588 18.64 55.0348 19.464 55.4828 20.472C55.9468 21.464 56.1787 22.664 56.1787 24.072C56.1787 26.152 55.7547 27.904 54.9067 29.328C54.0747 30.736 52.9228 31.8 51.4508 32.52C49.9788 33.24 48.2907 33.6 46.3867 33.6H31.9627ZM38.8268 28.536H43.8188C44.8588 28.536 45.7868 28.376 46.6028 28.056C47.4348 27.736 48.0827 27.216 48.5467 26.496C49.0267 25.776 49.2668 24.808 49.2668 23.592C49.2668 22.28 48.9948 21.28 48.4508 20.592C47.9228 19.888 47.2428 19.416 46.4108 19.176C45.5788 18.92 44.7067 18.792 43.7948 18.792H38.8268V28.536ZM38.8268 13.752H43.0028C43.9628 13.752 44.8188 13.6 45.5708 13.296C46.3388 12.976 46.9388 12.488 47.3708 11.832C47.8188 11.16 48.0428 10.296 48.0428 9.24C48.0428 8.408 47.9228 7.728 47.6828 7.2C47.4588 6.672 47.1228 6.248 46.6748 5.928C46.2268 5.608 45.6828 5.384 45.0428 5.256C44.4188 5.128 43.7067 5.064 42.9067 5.064H38.8268V13.752Z" fill="black"/>
<path d="M63.3735 33.6V28.536L78.0375 5.064H63.7575V0H84.9015V5.064L70.1895 28.536H85.3575V33.6H63.3735Z" fill="black"/>
<path d="M115.208 33.6L110.36 9.096L109.544 0.12H113.36L119.552 29.304L118.568 33.6H115.208ZM96.9202 33.6L91.4482 0H98.6722L101.912 29.088L102.56 33.6H96.9202ZM101.984 33.6L101.168 29.304L107.408 0.12H111.272L110.648 9.096L105.584 33.6H101.984ZM117.992 33.6L118.784 29.088L122.144 0H129.368L123.872 33.6H117.992Z" fill="black"/>
</svg>
