<svg width="240" height="120" viewBox="0 0 240 120" fill="none" xmlns="http://www.w3.org/2000/svg">
<path d="M69.2119 37.3222C69.3027 36.7879 68.9078 36.3396 68.3903 36.3396C68.3404 36.3396 68.2904 36.3441 68.2405 36.3532L66.9605 36.566C59.7159 37.7841 52.9616 41.4158 47.8142 46.8588L47.0653 47.6513C44.1703 50.7107 41.7499 54.1845 39.8843 57.9577L38.863 60.0226L39.2352 60.7924C40.37 63.1336 42.2855 65.0445 44.6323 66.1766L45.5265 66.6068L47.551 65.6105C51.3185 63.7585 54.8046 61.3404 57.8821 58.4468L58.6765 57.6996C64.1325 52.5645 67.773 45.8264 68.994 38.5992L69.2119 37.3222ZM34.2058 51.5366L33.2617 52.4785C33.0392 52.7004 33.0665 53.0717 33.3252 53.2573L34.46 54.0634C35.681 54.9328 36.8658 55.8385 38.0278 56.7758C39.7609 53.3155 41.9416 50.0971 44.5143 47.203C40.8012 47.1894 37.0473 48.7019 34.2058 51.5366ZM51.4546 71.0219L52.2626 72.1539C52.4487 72.4121 52.8209 72.4437 53.0434 72.2173L53.9875 71.2754C56.829 68.4407 58.3451 64.6913 58.3269 60.9917C55.4247 63.5567 52.1988 65.7321 48.7311 67.4626C49.6753 68.6219 50.5831 69.8037 51.4546 71.0219Z" fill="white"/>
<path d="M29.0402 78.086C33.0256 74.7577 37.2697 71.7464 41.7272 69.0747L43.4703 68.0332C40.8429 66.7026 38.7079 64.5728 37.3741 61.9517L36.3301 63.6905C33.6567 68.1393 30.6364 72.3713 27.2972 76.3471L22.5265 82.3109C22.3041 82.5917 22.5401 82.9358 22.8261 82.9358C22.9033 82.9358 22.9895 82.9086 23.0667 82.8498L29.0402 78.086Z" fill="white"/>
<path d="M25.654 59.683C25.654 54.3306 27.7421 49.2951 31.5368 45.5094C35.3315 41.7238 40.3791 39.6408 45.7444 39.6408C47.8188 39.6408 49.8478 39.9577 51.7724 40.56C53.0252 39.677 54.328 38.8755 55.6716 38.16C52.5985 36.7472 49.2305 36 45.7444 36C39.4032 36 33.4387 38.4634 28.954 42.9374C24.4693 47.4113 22 53.357 22 59.6875C22 64.8091 23.625 69.6815 26.6209 73.7253C27.4198 72.7381 28.2005 71.7374 28.9631 70.7185C26.8115 67.4672 25.654 63.6679 25.654 59.683ZM67.3781 49.9019C66.6518 51.2513 65.8393 52.56 64.9496 53.8143C67.0422 60.6747 65.3809 68.4408 59.952 73.8566C56.1573 77.6423 51.1097 79.7253 45.7444 79.7253C41.7545 79.7253 37.9416 78.566 34.687 76.4196C33.6657 77.1804 32.6625 77.9592 31.673 78.7562C35.7265 81.7449 40.6106 83.366 45.7444 83.366C52.0856 83.366 58.0501 80.9026 62.5348 76.4287C67.0195 71.9547 69.4888 66.0091 69.4888 59.6785C69.4888 56.2551 68.758 52.9358 67.3781 49.9019Z" fill="white"/>
<path opacity="0.1" d="M69.221 37.1819V37.1049C69.221 37.0958 69.2164 37.0823 69.2164 37.0732C69.2119 37.0506 69.2119 37.0234 69.2028 37.0008C69.2028 36.9917 69.1983 36.9826 69.1983 36.9736C69.1937 36.9464 69.1846 36.9192 69.1756 36.8921C69.1756 36.8875 69.171 36.883 69.171 36.8785C69.1211 36.7472 69.0439 36.634 68.9395 36.5434C62.5998 48.0761 53.2113 57.6536 41.7953 64.234C42.635 65.0128 43.5928 65.6694 44.6323 66.1721L45.5265 66.6023L47.551 65.606C48.023 65.3751 48.4906 65.1351 48.949 64.886C49.6435 64.5102 50.3244 64.1208 50.9962 63.7087C51.8912 63.1611 52.7649 62.5795 53.6153 61.9653C55.111 60.8859 56.5348 59.7106 57.8776 58.4468L58.6719 57.6996C59.1758 57.2242 59.666 56.7351 60.1381 56.237C60.1562 56.2189 60.1744 56.1962 60.1971 56.1736C60.4831 55.8657 60.7645 55.5577 61.0414 55.2408C61.4499 54.7743 61.8448 54.2943 62.2261 53.8053L62.5938 53.3298C63.0087 52.7846 63.4053 52.2258 63.783 51.6543C64.1144 51.1562 64.4367 50.6491 64.7408 50.1374C64.9768 49.7434 65.2038 49.3404 65.4217 48.9374C65.7485 48.3306 66.0572 47.7192 66.3477 47.0943C66.5428 46.6777 66.7244 46.2611 66.9014 45.8355C67.0785 45.4143 67.2464 44.9887 67.4007 44.5585C68.1134 42.6294 68.649 40.6325 68.994 38.5992L69.2073 37.3223L69.221 37.2136V37.1819Z" fill="white"/>
<path d="M83.71 48.9193V49.0279L80.1013 69.4461C80.0741 69.6091 79.9969 69.7495 79.8744 69.8627C79.7518 69.9759 79.6111 70.0347 79.4522 70.0347H76.0115C75.8663 70.0347 75.7483 69.9849 75.662 69.8898C75.5758 69.7947 75.5304 69.6725 75.5304 69.5276V69.4461L79.139 49.0279C79.1663 48.883 79.248 48.7517 79.3887 48.6385C79.5249 48.5253 79.6701 48.4664 79.8154 48.4664H83.2561C83.4013 48.4664 83.5148 48.5117 83.592 48.5978C83.6691 48.6838 83.71 48.7925 83.71 48.9193ZM99.6107 55.0461C99.6107 55.0913 99.6062 55.1276 99.6016 55.1547C99.5971 55.1819 99.588 55.2136 99.5835 55.2498L97.1868 68.7487C97.1414 68.9887 97.0506 69.1653 96.919 69.2785C96.7873 69.3917 96.5377 69.4868 96.17 69.5593C94.1228 70.0438 92.1029 70.2883 90.1147 70.2883C88.8937 70.2883 87.8361 70.0483 86.9328 69.5728C86.034 69.0974 85.3486 68.4272 84.8765 67.5668C84.4045 66.7064 84.1684 65.7057 84.1684 64.56C84.1684 64.0302 84.2047 63.5411 84.2774 63.0883L84.6496 60.8921C84.8902 59.5381 85.2351 58.4061 85.6981 57.4913C86.1566 56.5811 86.7376 55.843 87.4412 55.2815C88.1447 54.72 88.9482 54.3125 89.856 54.0679C90.7639 53.8189 91.8124 53.6966 92.9926 53.6966C94.9399 53.6966 96.8917 53.9411 98.8572 54.4257C99.125 54.48 99.3156 54.5479 99.4337 54.634C99.5517 54.7155 99.6107 54.8513 99.6107 55.0461ZM94.6267 57.6136C94.0593 57.523 93.2967 57.4778 92.3435 57.4778C91.6445 57.4778 91.0861 57.6091 90.664 57.8762C90.2418 58.1434 89.9241 58.5193 89.7062 59.0083C89.4883 59.4974 89.3159 60.1268 89.1751 60.8966L88.8165 63.0928C88.7258 63.6861 88.6804 64.1615 88.6804 64.5057C88.6804 65.1849 88.8392 65.6921 89.157 66.0362C89.4747 66.3804 89.9967 66.5525 90.7321 66.5525C91.54 66.5525 92.3208 66.4981 93.0743 66.3895L94.6267 57.6136ZM116.987 54.3985V54.5208L115.457 63.1427C115.08 65.2483 114.417 66.8287 113.46 67.8793C112.506 68.9344 111.512 69.5955 110.487 69.8717C109.461 70.1479 108.421 70.2838 107.377 70.2838H107.141C106.469 70.2838 105.707 70.157 104.849 69.9079C103.991 69.6544 103.206 69.1291 102.489 68.323C101.771 67.517 101.417 66.3713 101.417 64.8906C101.417 64.4242 101.476 63.8445 101.594 63.1472L103.11 54.5253C103.138 54.3532 103.215 54.2083 103.337 54.0906C103.46 53.9774 103.601 53.9185 103.755 53.9185H107.223C107.368 53.9185 107.482 53.9638 107.559 54.0544C107.636 54.1449 107.677 54.2581 107.677 54.3985V54.5208L106.147 63.1427C106.056 63.6362 106.011 64.1344 106.011 64.6415C106.011 65.1079 106.079 65.4747 106.215 65.7419C106.351 66.0091 106.551 66.1902 106.814 66.2898C107.078 66.3895 107.418 66.4393 107.84 66.4393H108.076C108.921 66.4393 109.542 66.2128 109.946 65.76C110.35 65.3072 110.668 64.4332 110.895 63.1427L112.411 54.5208C112.438 54.3578 112.52 54.2128 112.661 54.0951C112.797 53.9774 112.942 53.9185 113.087 53.9185H116.555C116.846 53.9185 116.987 54.077 116.987 54.3985ZM133.346 58.3427C133.346 58.7185 133.296 59.2347 133.196 59.8959L131.503 69.4551C131.476 69.6091 131.399 69.7495 131.267 69.8672C131.14 69.9849 130.999 70.0438 130.854 70.0438H127.386C127.073 70.0438 126.918 69.8853 126.918 69.5638C126.927 69.5457 126.937 69.5276 126.941 69.5095C126.946 69.4913 126.946 69.4732 126.946 69.4551L128.693 59.5517C128.748 59.2211 128.775 58.9268 128.775 58.6596C128.775 57.8445 128.312 57.437 127.386 57.437H125.983C125.516 57.437 125.144 57.514 124.876 57.6725C124.603 57.8264 124.404 58.0619 124.277 58.3744C124.149 58.6868 124.041 59.0808 123.959 59.5562L122.211 69.4596C122.184 69.6136 122.102 69.754 121.962 69.8717C121.825 69.9894 121.676 70.0483 121.521 70.0483H118.067C117.763 70.0483 117.613 69.8898 117.613 69.5683C117.622 69.5502 117.631 69.5321 117.636 69.514C117.64 69.4959 117.64 69.4778 117.64 69.4596L119.442 59.2302C119.665 57.9668 120.078 56.9253 120.686 56.1011C121.294 55.277 122.093 54.6747 123.083 54.2898C124.068 53.9049 125.252 53.7147 126.628 53.7147H128.044C128.897 53.7147 129.66 53.8189 130.327 54.0227C130.999 54.2264 131.553 54.5298 131.998 54.9283C132.443 55.3268 132.778 55.8113 133.001 56.3819C133.232 56.9434 133.346 57.6 133.346 58.3427ZM148.021 54.5796C148.021 54.6159 148.016 54.6476 148.012 54.6747C148.007 54.7019 147.998 54.7336 147.989 54.7698L147.549 57.2695C147.522 57.3962 147.444 57.5095 147.322 57.6045C147.199 57.6996 147.068 57.7495 146.932 57.7495H146.863C145.688 57.6227 144.558 57.5593 143.464 57.5593C142.969 57.5593 142.538 57.6544 142.175 57.84C141.811 58.0257 141.498 58.3562 141.23 58.8227C140.963 59.2891 140.749 59.9547 140.581 60.8151L140.155 63.1789C140.064 63.7721 140.018 64.2249 140.018 64.5374C140.018 65.2528 140.173 65.7464 140.486 66.0272C140.799 66.3079 141.271 66.4483 141.902 66.4483C142.479 66.4483 143.082 66.4302 143.713 66.3849C144.34 66.3442 144.893 66.2989 145.37 66.2536H145.425C145.729 66.2536 145.878 66.3804 145.878 66.6385V66.72L145.425 69.2332C145.379 69.4461 145.311 69.591 145.22 69.6725C145.129 69.754 144.962 69.8219 144.726 69.8808C144.258 69.9895 143.709 70.0845 143.082 70.1706C142.451 70.2521 141.748 70.2928 140.967 70.2928C139.297 70.2928 137.953 69.8128 136.941 68.8528C135.929 67.8928 135.42 66.557 135.42 64.8408C135.42 64.32 135.475 63.7676 135.584 63.1789L136.01 60.8151C136.323 59.0944 136.823 57.7132 137.517 56.6672C138.212 55.6257 139.083 54.8695 140.132 54.403C141.18 53.9366 142.411 53.7011 143.813 53.7011C145.216 53.7011 146.45 53.8415 147.517 54.1268C147.858 54.2083 148.021 54.3578 148.021 54.5796ZM164.158 58.397C164.158 58.8544 164.121 59.2664 164.049 59.6332L162.328 69.4778C162.301 69.6317 162.219 69.7676 162.079 69.8762C161.943 69.9849 161.797 70.0393 161.652 70.0393H158.211C158.075 70.0393 157.962 69.9985 157.88 69.917C157.798 69.8355 157.757 69.7268 157.757 69.5864V69.4778L159.478 59.6604C159.532 59.357 159.56 59.0989 159.56 58.877C159.56 58.3291 159.396 57.9442 159.069 57.7313C158.742 57.5185 158.189 57.4098 157.412 57.4098C156.577 57.4098 155.806 57.4868 155.102 57.6408L153.023 69.4506C152.996 69.6045 152.914 69.7449 152.773 69.8627C152.637 69.9804 152.492 70.0393 152.347 70.0393H148.933C148.788 70.0393 148.67 69.9895 148.584 69.8944C148.498 69.7993 148.452 69.677 148.452 69.5321V69.4506L152.061 49.0325C152.088 48.8785 152.165 48.7427 152.297 48.634C152.424 48.5253 152.565 48.471 152.71 48.471H156.151C156.473 48.471 156.632 48.6295 156.632 48.951V49.0325L155.724 54.0725C156.827 53.8234 157.835 53.7011 158.752 53.7011C159.927 53.7011 160.921 53.9004 161.738 54.2898C162.555 54.6838 163.164 55.2362 163.563 55.9427C163.958 56.6536 164.158 57.4732 164.158 58.397ZM176.795 55.0461V55.0732L176.631 56.0332C176.604 56.1872 176.531 56.314 176.418 56.4045C176.305 56.4951 176.168 56.5404 176.014 56.5404H171.625L169.877 66.3306C169.814 66.6159 169.782 66.8649 169.782 67.0868C169.782 67.5532 169.922 67.8611 170.204 68.0151C170.485 68.1645 170.957 68.2415 171.629 68.2415H173.899C174.257 68.2415 174.434 68.3411 174.434 68.5449V68.64L174.271 69.5864C174.216 69.8627 173.999 70.0211 173.622 70.0664C173.336 70.1117 172.905 70.1525 172.319 70.1842C171.738 70.2159 171.257 70.234 170.88 70.234C169.741 70.234 168.86 69.9894 168.238 69.5004C167.612 69.0113 167.303 68.2732 167.303 67.2815C167.303 66.9781 167.331 66.6657 167.385 66.3351L169.959 51.8219C169.977 51.7042 170.05 51.5955 170.172 51.4913C170.295 51.3917 170.449 51.3238 170.635 51.2876L172.038 51.0657H172.092C172.21 51.0657 172.306 51.111 172.383 51.2015C172.455 51.2921 172.492 51.3917 172.492 51.5049V51.6L171.956 54.5796H176.359C176.654 54.5796 176.799 54.7155 176.799 54.9917V55.0461H176.795ZM190.73 58.877C190.73 59.1713 190.689 59.5562 190.607 60.0317L188.955 69.4778C188.928 69.6317 188.846 69.7676 188.71 69.8762C188.574 69.9849 188.429 70.0393 188.283 70.0393H186.922C186.804 70.0393 186.695 69.9985 186.604 69.917C186.513 69.8355 186.468 69.7268 186.468 69.5864V69.4778L188.134 60.0317C188.206 59.6559 188.243 59.28 188.243 58.9042C188.243 58.0438 187.993 57.4279 187.494 57.0521C186.994 56.6762 186.191 56.4906 185.092 56.4906C183.862 56.4906 182.755 56.631 181.761 56.9162L179.573 69.4823C179.545 69.6362 179.464 69.7721 179.323 69.8808C179.187 69.9895 179.042 70.0438 178.896 70.0438H177.535C177.417 70.0438 177.308 70.003 177.217 69.9215C177.126 69.84 177.081 69.7313 177.081 69.591V69.4823L180.603 49.4355C180.648 49.2815 180.726 49.1502 180.83 49.0506C180.934 48.951 181.071 48.9011 181.234 48.9011H182.664C182.95 48.9011 183.091 49.0415 183.091 49.3268V49.4355L182.155 54.7789C183.358 54.5117 184.457 54.3804 185.46 54.3804C186.618 54.3804 187.593 54.5751 188.392 54.9645C189.191 55.354 189.781 55.8883 190.163 56.563C190.539 57.2332 190.73 58.0076 190.73 58.877ZM206.826 55.4717C206.826 55.5079 206.821 55.5396 206.817 55.5668C206.812 55.594 206.803 55.6257 206.794 55.6619L204.452 68.9389C204.425 69.1381 204.361 69.2876 204.261 69.3781C204.161 69.4687 203.989 69.5366 203.753 69.5864C202.936 69.7766 202.055 69.9351 201.111 70.0528C200.167 70.1706 199.282 70.2295 198.456 70.2295C196.776 70.2295 195.505 69.7721 194.643 68.8574C193.78 67.9427 193.349 66.6974 193.349 65.1215C193.349 64.5555 193.404 63.9396 193.513 63.283L193.885 61.3178C194.103 60.154 194.402 59.1442 194.779 58.2838C195.156 57.4234 195.637 56.6989 196.222 56.1147C196.808 55.5306 197.516 55.0913 198.338 54.8015C199.159 54.5117 200.099 54.3668 201.152 54.3668C201.719 54.3668 202.305 54.394 202.9 54.4483C203.494 54.5027 204.093 54.5796 204.697 54.6838C205.296 54.7834 205.836 54.8966 206.313 55.0144C206.653 55.1095 206.826 55.2589 206.826 55.4717ZM204.111 56.7351C203.104 56.554 202.023 56.4589 200.875 56.4589C198.469 56.4589 196.967 58.08 196.359 61.3178L196 63.283C195.846 64.0438 195.764 64.7004 195.764 65.2619C195.764 65.8868 195.864 66.4121 196.068 66.8468C196.268 67.2815 196.595 67.6076 197.039 67.8295C197.484 68.0468 198.074 68.16 198.81 68.16C200.049 68.16 201.17 68.0649 202.169 67.8702L204.111 56.7351ZM218.296 55.0461V55.0732L218.133 56.0332C218.106 56.1872 218.033 56.314 217.92 56.4045C217.806 56.4951 217.67 56.5404 217.516 56.5404H213.126L211.379 66.3306C211.315 66.6159 211.283 66.8649 211.283 67.0868C211.283 67.5532 211.424 67.8611 211.706 68.0151C211.987 68.1645 212.459 68.2415 213.131 68.2415H215.4C215.759 68.2415 215.936 68.3411 215.936 68.5449V68.64L215.773 69.5864C215.718 69.8627 215.5 70.0211 215.128 70.0664C214.842 70.1117 214.411 70.1525 213.825 70.1842C213.244 70.2159 212.763 70.234 212.386 70.234C211.247 70.234 210.366 69.9894 209.745 69.5004C209.118 69.0113 208.81 68.2732 208.81 67.2815C208.81 66.9781 208.837 66.6657 208.891 66.3351L211.465 51.8219C211.483 51.7042 211.556 51.5955 211.678 51.4913C211.801 51.3917 211.955 51.3238 212.141 51.2876L213.544 51.0657H213.598C213.716 51.0657 213.812 51.111 213.889 51.2015C213.961 51.2921 213.998 51.3917 213.998 51.5049V51.6L213.462 54.5796H217.865C218.16 54.5796 218.305 54.7155 218.305 54.9917V55.0461H218.296Z" fill="white"/>
</svg>
