<svg width="434" height="106" fill="none" xmlns="http://www.w3.org/2000/svg"><path d="M104.68 3.86c.2-1.18-.67-2.17-1.81-2.17-.11 0-.22.01-.33.03l-2.82.47C83.76 4.88 68.88 12.9 57.54 24.92l-1.65 1.75a93.246 93.246 0 00-15.82 22.76l-2.25 4.56.82 1.7c2.5 5.17 6.72 9.39 11.89 11.89l1.97.95 4.46-2.2c8.3-4.09 15.98-9.43 22.76-15.82l1.75-1.65c12.02-11.34 20.04-26.22 22.73-42.18l.48-2.82zM27.56 35.25l-2.08 2.08c-.49.49-.43 1.31.14 1.72l2.5 1.78c2.69 1.92 5.3 3.92 7.86 5.99a97.635 97.635 0 0114.29-21.14c-8.18-.03-16.45 3.31-22.71 9.57zm38 43.03l1.78 2.5c.41.57 1.23.64 1.72.14l2.08-2.08c6.26-6.26 9.6-14.54 9.56-22.71a97.995 97.995 0 01-21.14 14.29c2.08 2.56 4.08 5.17 6 7.86z" fill="#fff"/><path d="M16.18 93.88c8.78-7.35 18.13-14 27.95-19.9l3.84-2.3a30.589 30.589 0 01-13.43-13.43l-2.3 3.84a218.258 218.258 0 01-19.9 27.95L1.83 103.21c-.49.62.03 1.38.66 1.38.17 0 .36-.06.53-.19l13.16-10.52z" fill="#34C6F4"/><path d="M8.72 53.24c0-11.82 4.6-22.94 12.96-31.3 8.36-8.36 19.48-12.96 31.3-12.96 4.57 0 9.04.7 13.28 2.03 2.76-1.95 5.63-3.72 8.59-5.3C68.08 2.59 60.66.94 52.98.94c-13.97 0-27.11 5.44-36.99 15.32C6.11 26.14.67 39.27.67 53.25c0 11.31 3.58 22.07 10.18 31 1.76-2.18 3.48-4.39 5.16-6.64-4.74-7.18-7.29-15.57-7.29-24.37zm91.92-21.6c-1.6 2.98-3.39 5.87-5.35 8.64 4.61 15.15.95 32.3-11.01 44.26C75.92 92.9 64.8 97.5 52.98 97.5c-8.79 0-17.19-2.56-24.36-7.3-2.25 1.68-4.46 3.4-6.64 5.16 8.93 6.6 19.69 10.18 31 10.18 13.97 0 27.11-5.44 36.99-15.32 9.88-9.88 15.32-23.01 15.32-36.99 0-7.56-1.61-14.89-4.65-21.59z" fill="#AAD151"/><path d="M104.7 3.55v-.17c0-.02-.01-.05-.01-.07-.01-.05-.01-.11-.03-.16 0-.02-.01-.04-.01-.06-.01-.06-.03-.12-.05-.18 0-.01-.01-.02-.01-.03-.11-.29-.28-.54-.51-.74a158.825 158.825 0 01-59.8 61.15c1.85 1.72 3.96 3.17 6.25 4.28l1.97.95 4.46-2.2c1.04-.51 2.07-1.04 3.08-1.59 1.53-.83 3.03-1.69 4.51-2.6a90.7 90.7 0 005.77-3.85 93.796 93.796 0 009.39-7.77l1.75-1.65c1.11-1.05 2.19-2.13 3.23-3.23.04-.04.08-.09.13-.14.63-.68 1.25-1.36 1.86-2.06.9-1.03 1.77-2.09 2.61-3.17l.81-1.05a68.266 68.266 0 002.62-3.7c.73-1.1 1.44-2.22 2.11-3.35.52-.87 1.02-1.76 1.5-2.65.72-1.34 1.4-2.69 2.04-4.07.43-.92.83-1.84 1.22-2.78.39-.93.76-1.87 1.1-2.82 1.57-4.26 2.75-8.67 3.51-13.16l.47-2.82.03-.24v-.07z" fill="#084C7F" opacity=".1"/><path d="M136.62 29.47v.24l-7.95 45.09c-.06.36-.23.67-.5.92s-.58.38-.93.38h-7.58c-.32 0-.58-.11-.77-.32-.19-.21-.29-.48-.29-.8v-.18l7.95-45.09c.06-.32.24-.61.55-.86.3-.25.62-.38.94-.38h7.58c.32 0 .57.1.74.29.17.19.26.43.26.71zM171.65 43c0 .1-.01.18-.02.24s-.03.13-.04.21l-5.28 29.81c-.1.53-.3.92-.59 1.17-.29.25-.84.46-1.65.62-4.51 1.07-8.96 1.61-13.34 1.61-2.69 0-5.02-.53-7.01-1.58-1.98-1.05-3.49-2.53-4.53-4.43s-1.56-4.11-1.56-6.64c0-1.17.08-2.25.24-3.25l.82-4.85c.53-2.99 1.29-5.49 2.31-7.51 1.01-2.01 2.29-3.64 3.84-4.88 1.55-1.24 3.32-2.14 5.32-2.68 2-.55 4.31-.82 6.91-.82 4.29 0 8.59.54 12.92 1.61.59.12 1.01.27 1.27.46.26.18.39.48.39.91zm-10.98 5.67c-1.25-.2-2.93-.3-5.03-.3-1.54 0-2.77.29-3.7.88-.93.59-1.63 1.42-2.11 2.5s-.86 2.47-1.17 4.17l-.79 4.85c-.2 1.31-.3 2.36-.3 3.12 0 1.5.35 2.62 1.05 3.38.7.76 1.85 1.14 3.47 1.14 1.78 0 3.5-.12 5.16-.36l3.42-19.38zm49.26-7.1v.27l-3.37 19.04c-.83 4.65-2.29 8.14-4.4 10.46-2.1 2.33-4.29 3.79-6.55 4.4-2.26.61-4.55.91-6.85.91h-.52c-1.48 0-3.16-.28-5.05-.83-1.89-.56-3.62-1.72-5.2-3.5s-2.36-4.31-2.36-7.58c0-1.03.13-2.31.39-3.85l3.34-19.04c.06-.38.23-.7.5-.96.27-.25.58-.38.92-.38h7.64c.32 0 .57.1.74.3.17.2.26.45.26.76v.27l-3.37 19.04c-.2 1.09-.3 2.19-.3 3.31 0 1.03.15 1.84.45 2.43.3.59.74.99 1.32 1.21.58.22 1.33.33 2.26.33h.52c1.86 0 3.23-.5 4.12-1.5.89-1 1.59-2.93 2.09-5.78l3.34-19.04c.06-.36.24-.68.55-.94.3-.26.62-.39.94-.39h7.64c.64 0 .95.35.95 1.06zm36.04 8.71c0 .83-.11 1.97-.33 3.43l-3.73 21.11c-.06.34-.23.65-.52.91-.28.26-.59.39-.91.39h-7.64c-.69 0-1.03-.35-1.03-1.06.02-.04.04-.08.05-.12.01-.04.01-.08.01-.12l3.85-21.87c.12-.73.18-1.38.18-1.97 0-1.8-1.02-2.7-3.06-2.7h-3.09c-1.03 0-1.85.17-2.44.52-.6.34-1.04.86-1.32 1.55-.28.69-.52 1.56-.7 2.61l-3.85 21.87c-.06.34-.24.65-.55.91-.3.26-.63.39-.97.39h-7.61c-.67 0-1-.35-1-1.06.02-.04.04-.08.05-.12.01-.04.01-.08.01-.12l3.97-22.59c.49-2.79 1.4-5.09 2.74-6.91 1.34-1.82 3.1-3.15 5.28-4 2.17-.85 4.78-1.27 7.81-1.27h3.12c1.88 0 3.56.23 5.03.68 1.48.45 2.7 1.12 3.68 2 .98.88 1.72 1.95 2.21 3.21.51 1.24.76 2.69.76 4.33zm32.33-8.31c0 .08-.01.15-.02.21s-.03.13-.05.21l-.97 5.52c-.06.28-.23.53-.5.74-.27.21-.56.32-.86.32h-.15c-2.59-.28-5.08-.42-7.49-.42-1.09 0-2.04.21-2.84.62-.8.41-1.49 1.14-2.08 2.17-.59 1.03-1.06 2.5-1.43 4.4l-.94 5.22c-.2 1.31-.3 2.31-.3 3 0 1.58.34 2.67 1.03 3.29.69.62 1.73.93 3.12.93 1.27 0 2.6-.04 3.99-.14 1.38-.09 2.6-.19 3.65-.29h.12c.67 0 1 .28 1 .85v.18l-1 5.55c-.1.47-.25.79-.45.97-.2.18-.57.33-1.09.46-1.03.24-2.24.45-3.62.64-1.39.18-2.94.27-4.66.27-3.68 0-6.64-1.06-8.87-3.18-2.23-2.12-3.35-5.07-3.35-8.86 0-1.15.12-2.37.36-3.67l.94-5.22c.69-3.8 1.79-6.85 3.32-9.16 1.53-2.3 3.45-3.97 5.76-5 2.31-1.03 5.02-1.55 8.11-1.55s5.81.31 8.16.94c.75.18 1.11.51 1.11 1zm35.55 8.43c0 1.01-.08 1.92-.24 2.73l-3.79 21.74c-.06.34-.24.64-.55.88-.3.24-.62.36-.94.36h-7.58c-.3 0-.55-.09-.73-.27-.18-.18-.27-.42-.27-.73v-.24l3.79-21.68c.12-.67.18-1.24.18-1.73 0-1.21-.36-2.06-1.08-2.53-.72-.47-1.94-.71-3.65-.71-1.84 0-3.54.17-5.09.51l-4.58 26.08c-.06.34-.24.65-.55.91-.3.26-.62.39-.94.39h-7.52c-.32 0-.58-.11-.77-.32-.19-.21-.29-.48-.29-.8v-.18l7.95-45.09c.06-.34.23-.64.52-.88.28-.24.59-.36.91-.36h7.58c.71 0 1.06.35 1.06 1.06v.18l-2 11.13c2.43-.55 4.65-.82 6.67-.82 2.59 0 4.78.44 6.58 1.3 1.8.87 3.14 2.09 4.02 3.65.87 1.57 1.31 3.38 1.31 5.42zm27.84-7.4v.06l-.36 2.12c-.06.34-.22.62-.47.82-.25.2-.55.3-.89.3h-9.67l-3.85 21.62c-.14.63-.21 1.18-.21 1.67 0 1.03.31 1.71.93 2.05.62.33 1.66.5 3.14.5h5c.79 0 1.18.22 1.18.67v.21l-.36 2.09c-.12.61-.6.96-1.43 1.06-.63.1-1.58.19-2.87.26-1.28.07-2.34.11-3.17.11-2.51 0-4.45-.54-5.82-1.62-1.38-1.08-2.06-2.71-2.06-4.9 0-.67.06-1.36.18-2.09l5.67-32.05c.04-.26.2-.5.47-.73.27-.22.61-.37 1.02-.45l3.09-.49h.12c.26 0 .47.1.64.3.16.2.24.42.24.67v.21l-1.18 6.58h9.7c.65 0 .97.3.97.91V43h-.01zm30.7 8.46c0 .65-.09 1.5-.27 2.55l-3.64 20.86c-.06.34-.24.64-.54.88-.3.24-.62.36-.94.36h-3c-.26 0-.5-.09-.7-.27-.2-.18-.3-.42-.3-.73v-.24l3.67-20.86c.16-.83.24-1.66.24-2.49 0-1.9-.55-3.26-1.65-4.09-1.1-.83-2.87-1.24-5.29-1.24-2.71 0-5.15.31-7.34.94l-4.82 27.75c-.06.34-.24.64-.55.88-.3.24-.62.36-.94.36h-3c-.26 0-.5-.09-.7-.27-.2-.18-.3-.42-.3-.73v-.24l7.76-44.27c.1-.34.27-.63.5-.85.23-.22.53-.33.89-.33h3.15c.63 0 .94.31.94.94v.24l-2.06 11.8c2.65-.59 5.07-.88 7.28-.88 2.55 0 4.7.43 6.46 1.29 1.76.86 3.06 2.04 3.9 3.53.83 1.48 1.25 3.19 1.25 5.11zm35.46-7.52c0 .08-.01.15-.02.21s-.03.13-.05.21l-5.16 29.32c-.06.44-.2.77-.42.97-.22.2-.6.35-1.12.46-1.8.42-3.74.77-5.82 1.03s-4.03.39-5.85.39c-3.7 0-6.5-1.01-8.4-3.03-1.9-2.02-2.85-4.77-2.85-8.25 0-1.25.12-2.61.36-4.06l.82-4.34c.48-2.57 1.14-4.8 1.97-6.7.83-1.9 1.89-3.5 3.18-4.79 1.29-1.29 2.85-2.26 4.66-2.9 1.81-.64 3.88-.96 6.2-.96 1.25 0 2.54.06 3.85.18s2.63.29 3.96.52c1.32.22 2.51.47 3.56.73.75.21 1.13.54 1.13 1.01zm-5.98 2.79c-2.22-.4-4.6-.61-7.13-.61-5.3 0-8.61 3.58-9.95 10.73l-.79 4.34c-.34 1.68-.52 3.13-.52 4.37 0 1.38.22 2.54.67 3.5.44.96 1.16 1.68 2.14 2.17.98.48 2.28.73 3.9.73 2.73 0 5.2-.21 7.4-.64l4.28-24.59zM433.12 43v.06l-.36 2.12c-.06.34-.22.62-.47.82-.25.2-.55.3-.89.3h-9.67l-3.85 21.62c-.14.63-.21 1.18-.21 1.67 0 1.03.31 1.71.93 2.05.62.33 1.66.5 3.14.5h5c.79 0 1.18.22 1.18.67v.21l-.36 2.09c-.12.61-.6.96-1.42 1.06-.63.1-1.58.19-2.87.26-1.28.07-2.34.11-3.17.11-2.51 0-4.45-.54-5.82-1.62-1.38-1.08-2.06-2.71-2.06-4.9 0-.67.06-1.36.18-2.09l5.67-32.05c.04-.26.2-.5.47-.73.27-.22.61-.37 1.02-.45l3.09-.49h.12c.26 0 .47.1.64.3.16.2.24.42.24.67v.21l-1.18 6.58h9.7c.65 0 .97.3.97.91V43h-.02z" fill="#fff"/></svg>