<svg width="55" height="14" viewBox="0 0 55 14" fill="none" xmlns="http://www.w3.org/2000/svg">
<path d="M13.5 0V13.2H11.52V5.56L11.68 1.92H11.66L7.64 13.2H5.86L1.84 1.92H1.82L1.98 5.56V13.2H0V0H3.18L5.84 7.64L6.76 10.78H6.8L7.74 7.64L10.38 0H13.5Z" fill="black"/>
<path d="M28.3819 13.2H26.1219L24.8619 9.74H19.3219L18.0619 13.2H15.8619L20.8419 0H23.4019L28.3819 13.2ZM19.9219 8H24.2619L22.1019 1.84L19.9219 8Z" fill="black"/>
<path d="M41.5427 0L35.6627 6.36L35.4227 6.38L32.0027 10.06L31.8027 7.72L38.9227 0H41.5427ZM32.8627 0V13.2H30.7227V0H32.8627ZM36.1027 4.72L41.6627 13.2H39.1427L34.4027 5.92L36.1027 4.72Z" fill="black"/>
<path d="M49.4425 0C50.8558 0 51.9758 0.353333 52.8025 1.06C53.6425 1.76667 54.0625 2.72 54.0625 3.92C54.0625 5.16 53.6425 6.12 52.8025 6.8C51.9758 7.46667 50.8558 7.8 49.4425 7.8L49.2425 7.92H46.1825V13.2H44.0625V0H49.4425ZM49.2825 6.14C50.1492 6.14 50.7892 5.96667 51.2025 5.62C51.6292 5.26 51.8425 4.71333 51.8425 3.98C51.8425 3.26 51.6292 2.72 51.2025 2.36C50.7892 2 50.1492 1.82 49.2825 1.82H46.1825V6.14H49.2825ZM50.5425 6.58L54.8425 13.2H52.3825L48.7025 7.42L50.5425 6.58Z" fill="black"/>
</svg>
