<svg width="240" height="120" viewBox="0 0 240 120" fill="none" xmlns="http://www.w3.org/2000/svg">
<path d="M85.776 44V76H80.9689V57.4788L81.3574 48.6545H81.3088L71.5488 76H67.2272L57.4673 48.6545H57.4187L57.8072 57.4788V76H53V44H60.7206L67.1787 62.5212L69.4123 70.1333H69.5094L71.7916 62.5212L78.2011 44H85.776Z" fill="white"/>
<path d="M121.907 76H116.42L113.361 67.6121H99.9108L96.8517 76H91.5104L103.601 44H109.816L121.907 76ZM101.367 63.3939H111.904L106.66 48.4606L101.367 63.3939Z" fill="white"/>
<path d="M153.86 44L139.584 59.4182L139.001 59.4667L130.698 68.3879L130.212 62.7152L147.499 44H153.86ZM132.786 44V76H127.59V44H132.786ZM140.652 55.4424L154.151 76H148.033L136.525 58.3515L140.652 55.4424Z" fill="white"/>
<path d="M173.039 44C176.471 44 179.19 44.8566 181.197 46.5697C183.236 48.2828 184.256 50.5939 184.256 53.503C184.256 56.5091 183.236 58.8364 181.197 60.4848C179.19 62.101 176.471 62.9091 173.039 62.9091L172.554 63.2H165.124V76H159.977V44H173.039ZM172.651 58.8848C174.755 58.8848 176.309 58.4647 177.312 57.6242C178.348 56.7515 178.866 55.4263 178.866 53.6485C178.866 51.903 178.348 50.5939 177.312 49.7212C176.309 48.8485 174.755 48.4121 172.651 48.4121H165.124V58.8848H172.651ZM175.71 59.9515L186.15 76H180.177L171.243 61.9879L175.71 59.9515Z" fill="white"/>
</svg>
