<svg width="240" height="120" viewBox="0 0 240 120" fill="none" xmlns="http://www.w3.org/2000/svg">
<path d="M9.10168 51C10.7166 51 12.1342 51.2772 13.3544 51.8315C14.5746 52.3859 15.6153 53.2085 16.4766 54.2993L14.4041 56.6866C13.6684 55.7567 12.8609 55.0772 11.9817 54.648C11.1204 54.2009 10.1155 53.9774 8.9671 53.9774C8.21346 53.9774 7.58542 54.0758 7.08299 54.2725C6.5985 54.4692 6.23963 54.7285 6.00636 55.0504C5.79103 55.3722 5.68336 55.7299 5.68336 56.1233C5.68336 56.6061 5.87178 57.0174 6.2486 57.3572C6.62542 57.6791 7.2714 57.9473 8.18654 58.1619L11.4972 58.9129C13.2557 59.3064 14.5118 59.8965 15.2654 60.6833C16.037 61.4522 16.4228 62.4536 16.4228 63.6875C16.4228 64.8499 16.1178 65.8513 15.5077 66.6918C14.8976 67.5144 14.0452 68.1492 12.9507 68.5962C11.8561 69.0254 10.6 69.24 9.18243 69.24C7.9443 69.24 6.80486 69.0969 5.76411 68.8108C4.74131 68.5068 3.82617 68.0955 3.01869 67.5769C2.21121 67.0584 1.53832 66.4593 1 65.7798L3.09944 63.2852C3.51215 63.8574 4.02355 64.3671 4.63364 64.8141C5.24374 65.2612 5.93458 65.6188 6.70617 65.8871C7.4957 66.1374 8.32112 66.2626 9.18243 66.2626C9.91813 66.2626 10.5372 66.1821 11.0396 66.0212C11.56 65.8424 11.9458 65.6009 12.197 65.2969C12.4662 64.9751 12.6007 64.5906 12.6007 64.1435C12.6007 63.6786 12.4393 63.2852 12.1163 62.9633C11.8112 62.6235 11.237 62.3642 10.3936 62.1854L6.78692 61.3807C5.74617 61.1304 4.84897 60.8085 4.09533 60.4151C3.35963 60.0038 2.79439 59.4852 2.39963 58.8593C2.0228 58.2155 1.83439 57.4555 1.83439 56.5793C1.83439 55.5242 2.1215 54.5765 2.6957 53.736C3.26991 52.8955 4.09533 52.2339 5.17196 51.7511C6.26654 51.2504 7.57645 51 9.10168 51Z" fill="white"/>
<path d="M33.4875 51.2682V54.2457H27.5391V68.9718H23.8247V54.2457H17.8494V51.2682H33.4875Z" fill="white"/>
<path d="M51.3534 51.2682V61.9977C51.3534 64.4118 50.7074 66.2268 49.4154 67.4428C48.1234 68.641 46.2393 69.24 43.7631 69.24C41.2868 69.24 39.4027 68.641 38.1107 67.4428C36.8188 66.2268 36.1728 64.4118 36.1728 61.9977V51.2682H39.8872V61.8367C39.8872 63.321 40.2012 64.4207 40.8292 65.136C41.4752 65.8513 42.4532 66.209 43.7631 66.209C45.073 66.209 46.042 65.8513 46.67 65.136C47.298 64.4207 47.612 63.321 47.612 61.8367V51.2682H51.3534Z" fill="white"/>
<path d="M62.4954 51.2682C65.2767 51.2682 67.43 52.0372 68.9552 53.5751C70.4804 55.0951 71.243 57.2767 71.243 60.12C71.243 62.9454 70.4804 65.1271 68.9552 66.665C67.43 68.2028 65.2767 68.9718 62.4954 68.9718H55.6318V51.2682H62.4954ZM62.307 66.0212C63.9937 66.0212 65.2588 65.5205 66.1021 64.5191C66.9634 63.4998 67.3941 62.0334 67.3941 60.12C67.3941 58.2066 66.9634 56.7492 66.1021 55.7478C65.2588 54.7285 63.9937 54.2188 62.307 54.2188H59.3462V66.0212H62.307Z" fill="white"/>
<path d="M78.692 51.2682V68.9718H74.9777V51.2682H78.692Z" fill="white"/>
<path d="M90.9811 51C92.7396 51 94.2558 51.3666 95.5299 52.0998C96.8039 52.8329 97.7818 53.8791 98.4637 55.2381C99.1635 56.5972 99.5134 58.2245 99.5134 60.12C99.5134 62.0155 99.1635 63.6428 98.4637 65.0019C97.7818 66.3609 96.8039 67.4071 95.5299 68.1402C94.2558 68.8734 92.7396 69.24 90.9811 69.24C89.2226 69.24 87.6973 68.8734 86.4054 68.1402C85.1313 67.4071 84.1444 66.3609 83.4446 65.0019C82.7628 63.6428 82.4218 62.0155 82.4218 60.12C82.4218 58.2245 82.7628 56.5972 83.4446 55.2381C84.1444 53.8791 85.1313 52.8329 86.4054 52.0998C87.6973 51.3666 89.2226 51 90.9811 51ZM90.9811 54.0311C89.9762 54.0311 89.1239 54.2635 88.4241 54.7285C87.7242 55.1934 87.1859 55.8819 86.8091 56.7939C86.4502 57.688 86.2708 58.7967 86.2708 60.12C86.2708 61.4254 86.4502 62.5341 86.8091 63.4461C87.1859 64.3581 87.7242 65.0466 88.4241 65.5115C89.1239 65.9765 89.9762 66.2089 90.9811 66.2089C91.968 66.2089 92.8113 65.9765 93.5112 65.5115C94.211 65.0466 94.7403 64.3581 95.0992 63.4461C95.476 62.5341 95.6644 61.4254 95.6644 60.12C95.6644 58.7967 95.476 57.688 95.0992 56.7939C94.7403 55.8819 94.211 55.1934 93.5112 54.7285C92.8113 54.2635 91.968 54.0311 90.9811 54.0311Z" fill="white"/>
<path d="M111.488 68.9718V51.2682H119.266C121.419 51.2682 123.007 51.6885 124.03 52.529C125.053 53.3694 125.564 54.5586 125.564 56.0965C125.564 57.0442 125.277 57.8847 124.703 58.6179C124.129 59.3511 123.286 59.816 122.173 60.0127V60.0395C123.411 60.2184 124.362 60.6833 125.026 61.4344C125.69 62.1854 126.022 63.0795 126.022 64.1167C126.022 65.6367 125.466 66.8259 124.353 67.6843C123.259 68.5426 121.653 68.9718 119.535 68.9718H111.488ZM115.094 66.1821H119.212C120.217 66.1821 120.962 65.9765 121.446 65.5652C121.931 65.1539 122.173 64.5817 122.173 63.8485C122.173 63.0974 121.931 62.5252 121.446 62.1318C120.962 61.7384 120.217 61.5417 119.212 61.5417H115.094V66.1821ZM115.094 58.6984H118.782C120.738 58.6984 121.716 57.9384 121.716 56.4184C121.716 54.8984 120.738 54.1384 118.782 54.1384H115.094V58.6984Z" fill="white"/>
<path d="M133.286 51.2682V68.9718H129.572V51.2682H133.286Z" fill="white"/>
<path d="M145.737 51.2682C147.747 51.2682 149.326 51.7511 150.474 52.7167C151.622 53.6824 152.197 54.9788 152.197 56.6061C152.197 58.3407 151.622 59.673 150.474 60.6028C149.326 61.5148 147.756 61.9708 145.764 61.9708L145.387 62.1854H141.565V68.9718H137.904V51.2682H145.737ZM145.306 59.369C146.347 59.369 147.119 59.1633 147.621 58.752C148.141 58.3228 148.401 57.6701 148.401 56.7939C148.401 55.9177 148.141 55.2739 147.621 54.8626C147.119 54.4334 146.347 54.2188 145.306 54.2188H141.565V59.369H145.306ZM147.486 60.1468L153.246 68.9718H149.074L144.31 61.2198L147.486 60.1468Z" fill="white"/>
<path d="M163.062 51.2682C165.843 51.2682 167.996 52.0372 169.521 53.5751C171.047 55.0951 171.809 57.2767 171.809 60.12C171.809 62.9454 171.047 65.1271 169.521 66.665C167.996 68.2028 165.843 68.9718 163.062 68.9718H156.198V51.2682H163.062ZM162.873 66.0212C164.56 66.0212 165.825 65.5205 166.668 64.5191C167.53 63.4998 167.96 62.0334 167.96 60.12C167.96 58.2066 167.53 56.7492 166.668 55.7478C165.825 54.7285 164.56 54.2188 162.873 54.2188H159.913V66.0212H162.873Z" fill="white"/>
<path d="M181.926 51C183.541 51 184.959 51.2772 186.179 51.8315C187.399 52.3859 188.44 53.2085 189.301 54.2993L187.229 56.6866C186.493 55.7567 185.686 55.0772 184.806 54.648C183.945 54.2009 182.94 53.9774 181.792 53.9774C181.038 53.9774 180.41 54.0758 179.908 54.2725C179.423 54.4692 179.064 54.7285 178.831 55.0504C178.616 55.3722 178.508 55.7299 178.508 56.1233C178.508 56.6061 178.696 57.0174 179.073 57.3572C179.45 57.6791 180.096 57.9473 181.011 58.1619L184.322 58.9129C186.08 59.3064 187.336 59.8965 188.09 60.6833C188.862 61.4522 189.247 62.4536 189.247 63.6875C189.247 64.8499 188.942 65.8513 188.332 66.6918C187.722 67.5144 186.87 68.1492 185.775 68.5962C184.681 69.0254 183.425 69.24 182.007 69.24C180.769 69.24 179.63 69.0969 178.589 68.8108C177.566 68.5068 176.651 68.0955 175.843 67.5769C175.036 67.0584 174.363 66.4593 173.825 65.7798L175.924 63.2852C176.337 63.8574 176.848 64.3671 177.458 64.8141C178.068 65.2612 178.759 65.6188 179.531 65.8871C180.32 66.1374 181.146 66.2626 182.007 66.2626C182.743 66.2626 183.362 66.1821 183.864 66.0212C184.385 65.8424 184.77 65.6009 185.022 65.2969C185.291 64.9751 185.425 64.5906 185.425 64.1435C185.425 63.6786 185.264 63.2852 184.941 62.9633C184.636 62.6235 184.062 62.3642 183.218 62.1854L179.612 61.3807C178.571 61.1304 177.674 60.8085 176.92 60.4151C176.184 60.0038 175.619 59.4852 175.224 58.8593C174.847 58.2155 174.659 57.4555 174.659 56.5793C174.659 55.5242 174.946 54.5765 175.52 53.736C176.095 52.8955 176.92 52.2339 177.997 51.7511C179.091 51.2504 180.401 51 181.926 51Z" fill="white"/>
<path d="M208.053 68.9718H204.204L202.723 64.6532H195.914L194.433 68.9718H190.638L197.125 51.2682H201.566L208.053 68.9718ZM196.748 61.9172H201.889L199.305 54.192L196.748 61.9172Z" fill="white"/>
<path d="M214.401 65.9944H223.768V68.9718H210.687V51.2682H214.401V65.9944Z" fill="white"/>
<path d="M230.567 65.9944H239.933V68.9718H226.852V51.2682H230.567V65.9944Z" fill="white"/>
</svg>
