<svg width="214" height="17" viewBox="0 0 214 17" fill="none" xmlns="http://www.w3.org/2000/svg">
<path d="M7.224 0C8.664 0 9.928 0.248 11.016 0.743999C12.104 1.24 13.032 1.976 13.8 2.952L11.952 5.088C11.296 4.256 10.576 3.648 9.792 3.264C9.024 2.864 8.128 2.664 7.104 2.664C6.432 2.664 5.872 2.752 5.424 2.928C4.992 3.104 4.672 3.336 4.464 3.624C4.272 3.912 4.176 4.232 4.176 4.584C4.176 5.016 4.344 5.384 4.68 5.688C5.016 5.976 5.592 6.216 6.408 6.408L9.36 7.08C10.928 7.432 12.048 7.96 12.72 8.664C13.408 9.352 13.752 10.248 13.752 11.352C13.752 12.392 13.48 13.288 12.936 14.04C12.392 14.776 11.632 15.344 10.656 15.744C9.68 16.128 8.56 16.32 7.296 16.32C6.192 16.32 5.176 16.192 4.248 15.936C3.336 15.664 2.52 15.296 1.8 14.832C1.08 14.368 0.48 13.832 0 13.224L1.872 10.992C2.24 11.504 2.696 11.96 3.24 12.36C3.784 12.76 4.4 13.08 5.088 13.32C5.792 13.544 6.528 13.656 7.296 13.656C7.952 13.656 8.504 13.584 8.952 13.44C9.416 13.28 9.76 13.064 9.984 12.792C10.224 12.504 10.344 12.16 10.344 11.76C10.344 11.344 10.2 10.992 9.912 10.704C9.64 10.4 9.128 10.168 8.376 10.008L5.16 9.288C4.232 9.064 3.432 8.776 2.76 8.424C2.104 8.056 1.6 7.592 1.248 7.032C0.912 6.456 0.744 5.776 0.744 4.992C0.744 4.048 1 3.2 1.512 2.448C2.024 1.696 2.76 1.104 3.72 0.672C4.696 0.224 5.864 0 7.224 0Z" fill="black"/>
<path d="M28.968 0.24V2.904H23.664V16.08H20.352V2.904H15.024V0.24H28.968Z" fill="black"/>
<path d="M44.8984 0.24V9.84C44.8984 12 44.3224 13.624 43.1704 14.712C42.0184 15.784 40.3384 16.32 38.1304 16.32C35.9224 16.32 34.2424 15.784 33.0904 14.712C31.9384 13.624 31.3624 12 31.3624 9.84V0.24H34.6744V9.696C34.6744 11.024 34.9544 12.008 35.5144 12.648C36.0904 13.288 36.9624 13.608 38.1304 13.608C39.2984 13.608 40.1624 13.288 40.7224 12.648C41.2824 12.008 41.5624 11.024 41.5624 9.696V0.24H44.8984Z" fill="black"/>
<path d="M54.8334 0.24C57.3134 0.24 59.2334 0.928 60.5934 2.304C61.9534 3.664 62.6334 5.616 62.6334 8.16C62.6334 10.688 61.9534 12.64 60.5934 14.016C59.2334 15.392 57.3134 16.08 54.8334 16.08H48.7134V0.24H54.8334ZM54.6654 13.44C56.1694 13.44 57.2974 12.992 58.0494 12.096C58.8174 11.184 59.2014 9.872 59.2014 8.16C59.2014 6.448 58.8174 5.144 58.0494 4.248C57.2974 3.336 56.1694 2.88 54.6654 2.88H52.0254V13.44H54.6654Z" fill="black"/>
<path d="M69.2754 0.24V16.08H65.9634V0.24H69.2754Z" fill="black"/>
<path d="M80.2331 0C81.8011 0 83.1531 0.328 84.2891 0.984C85.4251 1.64 86.2971 2.576 86.9051 3.792C87.5291 5.008 87.8411 6.464 87.8411 8.16C87.8411 9.856 87.5291 11.312 86.9051 12.528C86.2971 13.744 85.4251 14.68 84.2891 15.336C83.1531 15.992 81.8011 16.32 80.2331 16.32C78.6651 16.32 77.3051 15.992 76.1531 15.336C75.0171 14.68 74.1371 13.744 73.5131 12.528C72.9051 11.312 72.6011 9.856 72.6011 8.16C72.6011 6.464 72.9051 5.008 73.5131 3.792C74.1371 2.576 75.0171 1.64 76.1531 0.984C77.3051 0.328 78.6651 0 80.2331 0ZM80.2331 2.712C79.3371 2.712 78.5771 2.92 77.9531 3.336C77.3291 3.752 76.8491 4.368 76.5131 5.184C76.1931 5.984 76.0331 6.976 76.0331 8.16C76.0331 9.328 76.1931 10.32 76.5131 11.136C76.8491 11.952 77.3291 12.568 77.9531 12.984C78.5771 13.4 79.3371 13.608 80.2331 13.608C81.1131 13.608 81.8651 13.4 82.4891 12.984C83.1131 12.568 83.5851 11.952 83.9051 11.136C84.2411 10.32 84.4091 9.328 84.4091 8.16C84.4091 6.976 84.2411 5.984 83.9051 5.184C83.5851 4.368 83.1131 3.752 82.4891 3.336C81.8651 2.92 81.1131 2.712 80.2331 2.712Z" fill="black"/>
<path d="M98.5181 16.08V0.24H105.454C107.374 0.24 108.79 0.616 109.702 1.368C110.614 2.12 111.07 3.184 111.07 4.56C111.07 5.408 110.814 6.16 110.302 6.816C109.79 7.472 109.038 7.888 108.046 8.064V8.088C109.15 8.248 109.998 8.664 110.59 9.336C111.182 10.008 111.478 10.808 111.478 11.736C111.478 13.096 110.982 14.16 109.99 14.928C109.014 15.696 107.582 16.08 105.694 16.08H98.5181ZM101.734 13.584H105.406C106.302 13.584 106.966 13.4 107.398 13.032C107.83 12.664 108.046 12.152 108.046 11.496C108.046 10.824 107.83 10.312 107.398 9.96C106.966 9.608 106.302 9.432 105.406 9.432H101.734V13.584ZM101.734 6.888H105.022C106.766 6.888 107.638 6.208 107.638 4.848C107.638 3.488 106.766 2.808 105.022 2.808H101.734V6.888Z" fill="black"/>
<path d="M117.955 0.24V16.08H114.643V0.24H117.955Z" fill="black"/>
<path d="M129.057 0.24C130.849 0.24 132.257 0.672 133.281 1.536C134.305 2.4 134.817 3.56 134.817 5.016C134.817 6.568 134.305 7.76 133.281 8.592C132.257 9.408 130.857 9.816 129.081 9.816L128.745 10.008H125.337V16.08H122.073V0.24H129.057ZM128.673 7.488C129.601 7.488 130.289 7.304 130.737 6.936C131.201 6.552 131.433 5.968 131.433 5.184C131.433 4.4 131.201 3.824 130.737 3.456C130.289 3.072 129.601 2.88 128.673 2.88H125.337V7.488H128.673ZM130.617 8.184L135.753 16.08H132.033L127.785 9.144L130.617 8.184Z" fill="black"/>
<path d="M144.505 0.24C146.985 0.24 148.905 0.928 150.265 2.304C151.625 3.664 152.305 5.616 152.305 8.16C152.305 10.688 151.625 12.64 150.265 14.016C148.905 15.392 146.985 16.08 144.505 16.08H138.385V0.24H144.505ZM144.337 13.44C145.841 13.44 146.969 12.992 147.721 12.096C148.489 11.184 148.873 9.872 148.873 8.16C148.873 6.448 148.489 5.144 147.721 4.248C146.969 3.336 145.841 2.88 144.337 2.88H141.697V13.44H144.337Z" fill="black"/>
<path d="M161.326 0C162.766 0 164.03 0.248 165.118 0.743999C166.206 1.24 167.134 1.976 167.902 2.952L166.054 5.088C165.398 4.256 164.678 3.648 163.894 3.264C163.126 2.864 162.23 2.664 161.206 2.664C160.534 2.664 159.974 2.752 159.526 2.928C159.094 3.104 158.774 3.336 158.566 3.624C158.374 3.912 158.278 4.232 158.278 4.584C158.278 5.016 158.446 5.384 158.782 5.688C159.118 5.976 159.694 6.216 160.51 6.408L163.462 7.08C165.03 7.432 166.15 7.96 166.822 8.664C167.51 9.352 167.854 10.248 167.854 11.352C167.854 12.392 167.582 13.288 167.038 14.04C166.494 14.776 165.734 15.344 164.758 15.744C163.782 16.128 162.662 16.32 161.398 16.32C160.294 16.32 159.278 16.192 158.35 15.936C157.438 15.664 156.622 15.296 155.902 14.832C155.182 14.368 154.582 13.832 154.102 13.224L155.974 10.992C156.342 11.504 156.798 11.96 157.342 12.36C157.886 12.76 158.502 13.08 159.19 13.32C159.894 13.544 160.63 13.656 161.398 13.656C162.054 13.656 162.606 13.584 163.054 13.44C163.518 13.28 163.862 13.064 164.086 12.792C164.326 12.504 164.446 12.16 164.446 11.76C164.446 11.344 164.302 10.992 164.014 10.704C163.742 10.4 163.23 10.168 162.478 10.008L159.262 9.288C158.334 9.064 157.534 8.776 156.862 8.424C156.206 8.056 155.702 7.592 155.35 7.032C155.014 6.456 154.846 5.776 154.846 4.992C154.846 4.048 155.102 3.2 155.614 2.448C156.126 1.696 156.862 1.104 157.822 0.672C158.798 0.224 159.966 0 161.326 0Z" fill="black"/>
<path d="M184.622 16.08H181.19L179.87 12.216H173.798L172.478 16.08H169.094L174.878 0.24H178.838L184.622 16.08ZM174.542 9.768H179.126L176.822 2.856L174.542 9.768Z" fill="black"/>
<path d="M190.283 13.416H198.635V16.08H186.971V0.24H190.283V13.416Z" fill="black"/>
<path d="M204.697 13.416H213.049V16.08H201.385V0.24H204.697V13.416Z" fill="black"/>
</svg>
