<svg width="240" height="120" viewBox="0 0 240 120" fill="none" xmlns="http://www.w3.org/2000/svg">
<path fill-rule="evenodd" clip-rule="evenodd" d="M71.9235 53.2472C71.7807 52.9393 71.9719 52.6318 72.3299 52.6318H75.5048C75.6956 52.6318 75.8628 52.7738 75.9108 52.8925L79.8497 61.5362H79.9929L83.9317 52.8925C83.9797 52.7738 84.1465 52.6318 84.3377 52.6318H87.5126C87.8706 52.6318 88.0618 52.9393 87.9182 53.2476L80.4221 69.1843C80.3505 69.3268 80.2072 69.4454 80.0164 69.4454H79.7781C79.5868 69.4454 79.4428 69.3268 79.3712 69.1847L71.9235 53.2472ZM91.4295 53.0818C91.4295 52.8445 91.6443 52.6318 91.8831 52.6318H94.7475C94.9867 52.6318 95.2011 52.8445 95.2011 53.0818V68.7589C95.2011 68.9954 94.9867 69.2089 94.7475 69.2089H91.8831C91.6443 69.2089 91.4295 68.9954 91.4295 68.7589V53.0818ZM99.9048 66.959L101.027 64.9936C101.218 64.6853 101.671 64.7329 101.838 64.8515C101.934 64.8988 103.653 66.1539 105.229 66.1539C106.184 66.1539 106.876 65.5622 106.876 64.7329C106.876 63.7385 106.041 62.981 104.417 62.3413C102.364 61.5358 99.7852 59.9493 99.7852 57.107C99.7852 54.763 101.624 52.3945 105.3 52.3945C107.783 52.3945 109.693 53.6496 110.409 54.1702C110.695 54.3369 110.647 54.763 110.552 54.9289L109.335 56.7518C109.168 57.013 108.738 57.2256 108.523 57.0602C108.308 56.9415 106.565 55.6392 105.109 55.6392C104.25 55.6392 103.605 56.2078 103.605 56.8467C103.605 57.7236 104.321 58.3863 106.207 59.1442C108.069 59.8779 111.029 61.3227 111.029 64.5436C111.029 66.9828 108.905 69.4458 105.396 69.4458C102.292 69.4458 100.573 68.1665 100.024 67.6225C99.7852 67.3852 99.714 67.2903 99.9048 66.959ZM115.495 53.0818C115.495 52.8445 115.71 52.6318 115.948 52.6318H118.813C119.052 52.6318 119.266 52.8445 119.266 53.0818V68.7589C119.266 68.9954 119.052 69.2089 118.813 69.2089H115.948C115.71 69.2089 115.495 68.9954 115.495 68.7589V53.0818ZM132.278 65.6571C134.904 65.6571 137.052 63.5254 137.052 60.9433C137.052 58.3391 134.904 56.1836 132.278 56.1836C129.676 56.1836 127.527 58.3391 127.527 60.9433C127.527 63.5254 129.676 65.6571 132.278 65.6571ZM132.278 52.3945C137.052 52.3945 140.872 56.2074 140.872 60.9433C140.872 65.6801 137.052 69.4454 132.278 69.4454C127.504 69.4454 123.708 65.6801 123.708 60.9433C123.708 56.2074 127.504 52.3945 132.278 52.3945ZM145.29 52.821C145.29 52.5841 145.505 52.3945 145.744 52.3945H146.341L155.866 61.4886H155.89V53.0818C155.89 52.844 156.081 52.631 156.343 52.631H159.209C159.447 52.631 159.662 52.8445 159.662 53.0818V69.0188C159.662 69.2557 159.447 69.445 159.209 69.445H158.826C158.755 69.445 158.564 69.3744 158.516 69.3264L149.087 59.9263H149.062V68.7597C149.062 68.9958 148.872 69.2093 148.609 69.2093H145.768C145.53 69.2093 145.315 68.9958 145.315 68.7593L145.29 52.821ZM169.786 54.8575H165.895C165.775 54.8575 165.659 54.8101 165.574 54.7258C165.489 54.6415 165.441 54.5272 165.441 54.4079V53.0818C165.441 52.8445 165.632 52.6318 165.895 52.6318H176.16C176.422 52.6318 176.614 52.8445 176.614 53.0818V54.4079C176.614 54.6444 176.423 54.8579 176.16 54.8579H172.269V68.7589C172.269 68.9954 172.055 69.2089 171.815 69.2089H170.24C170.001 69.2089 169.786 68.995 169.786 68.7589V54.8575ZM180.745 53.0818C180.745 52.8445 180.96 52.6318 181.198 52.6318H182.774C183.013 52.6318 183.228 52.8445 183.228 53.0818V68.7589C183.228 68.9954 183.013 69.2089 182.774 69.2089H181.198C180.96 69.2089 180.745 68.9954 180.745 68.7589V53.0818ZM191.704 54.8575H187.812C187.692 54.8575 187.577 54.8101 187.492 54.7258C187.407 54.6415 187.359 54.5272 187.359 54.4079V53.0818C187.359 52.8445 187.55 52.6318 187.812 52.6318H198.078C198.34 52.6318 198.531 52.8445 198.531 53.0818V54.4079C198.531 54.6444 198.34 54.8579 198.078 54.8579H194.187V68.7589C194.187 68.9954 193.971 69.2089 193.733 69.2089H192.157C191.918 69.2089 191.703 68.995 191.703 68.7589L191.704 54.8575ZM202.662 53.0818C202.662 52.8445 202.853 52.6318 203.115 52.6318H204.691C204.93 52.6318 205.145 52.8445 205.145 53.0818V67.0058H211.614C211.876 67.0058 212.068 67.2193 212.068 67.4562V68.7589C212.068 68.9954 211.876 69.2089 211.614 69.2089H203.115C202.995 69.2089 202.879 69.1615 202.794 69.0771C202.709 68.9927 202.662 68.8783 202.662 68.7589V53.0818ZM216.128 53.0818C216.128 52.8445 216.319 52.6318 216.581 52.6318H226.13C226.393 52.6318 226.584 52.8445 226.584 53.0818V54.4079C226.584 54.6444 226.393 54.8579 226.13 54.8579H218.587V59.689H224.961C225.199 59.689 225.414 59.9017 225.414 60.1382V61.4652C225.414 61.7255 225.199 61.9151 224.961 61.9151H218.587V67.0058H226.13C226.393 67.0058 226.584 67.2193 226.584 67.4562V68.7589C226.584 68.9954 226.393 69.2089 226.13 69.2089H216.581C216.461 69.2088 216.345 69.1613 216.26 69.077C216.176 68.9926 216.128 68.8782 216.128 68.7589V53.0818Z" fill="#FEFEFE"/>
<mask id="mask0_7_209" style="mask-type:luminance" maskUnits="userSpaceOnUse" x="14" y="33" width="49" height="54">
<path d="M14 33H62.0031V87H14V33Z" fill="white"/>
</mask>
<g mask="url(#mask0_7_209)">
<path fill-rule="evenodd" clip-rule="evenodd" d="M40.9598 74.5979L35.0421 74.5939L33.3733 71.0416L43.917 49.4182H52.7963L40.9594 74.5975L40.9598 74.5979ZM23.2064 49.415H35.0417L29.1192 61.9943L23.2064 49.415ZM60.3966 45.3337L39.6071 33.4263C39.1188 33.1467 38.565 32.9995 38.0012 32.9995C37.4374 32.9995 36.8835 33.1467 36.3952 33.4263L15.6061 45.3337C15.1179 45.6132 14.7124 46.0153 14.4305 46.4996C14.1485 46.9839 14.0001 47.5332 14 48.0925V71.9073C14 72.4665 14.1485 73.0159 14.4305 73.5001C14.7126 73.9844 15.1182 74.3864 15.6065 74.6657L36.396 86.5727C36.8843 86.8523 37.4382 86.9995 38.002 86.9995C38.5658 86.9995 39.1196 86.8523 39.6079 86.5727L60.397 74.6653C60.8852 74.3859 61.2907 73.984 61.5727 73.4998C61.8546 73.0157 62.0031 72.4664 62.0031 71.9073V48.0925C62.0031 47.5332 61.8547 46.9837 61.5728 46.4994C61.2908 46.015 60.8853 45.6128 60.397 45.3333L60.3966 45.3337Z" fill="#FEFEFE"/>
</g>
</svg>
