<svg width="523" height="134" xmlns="http://www.w3.org/2000/svg" xmlns:xlink="http://www.w3.org/1999/xlink">
  <defs>
    <path id="a" d="M0 .195h117.995V134H0z"/>
  </defs>
  <g fill="none" fill-rule="evenodd">
    <path d="M142.38 50.17c-.351-.763.119-1.525.999-1.525h7.804c.469 0 .88.352.998.646l9.682 21.418h.352l9.682-21.418c.118-.294.528-.646.998-.646h7.804c.88 0 1.35.762.997 1.526L163.27 89.66c-.176.353-.528.647-.997.647h-.586c-.47 0-.824-.294-1-.646L142.382 50.17zM190.327 49.76c0-.588.528-1.115 1.115-1.115h7.041c.588 0 1.115.527 1.115 1.115v38.846c0 .586-.527 1.115-1.115 1.115h-7.041c-.587 0-1.115-.529-1.115-1.115V49.76zM211.16 84.146l2.758-4.87c.47-.764 1.584-.646 1.995-.352.234.117 4.46 3.227 8.334 3.227 2.347 0 4.048-1.466 4.048-3.521 0-2.464-2.053-4.341-6.044-5.926-5.047-1.996-11.385-5.927-11.385-12.97 0-5.808 4.52-11.677 13.556-11.677 6.102 0 10.798 3.11 12.557 4.4.705.413.587 1.469.352 1.88l-2.992 4.517c-.41.647-1.466 1.174-1.995.764-.529-.294-4.812-3.521-8.391-3.521-2.113 0-3.697 1.409-3.697 2.992 0 2.173 1.76 3.815 6.396 5.693 4.576 1.818 11.853 5.398 11.853 13.379 0 6.044-5.222 12.147-13.848 12.147-7.629 0-11.854-3.17-13.204-4.518-.587-.588-.762-.823-.293-1.644M249.481 49.76c0-.588.528-1.115 1.114-1.115h7.042c.588 0 1.115.527 1.115 1.115v38.846c0 .586-.527 1.115-1.115 1.115h-7.042c-.586 0-1.114-.529-1.114-1.115V49.76zM290.736 80.92c6.455 0 11.735-5.282 11.735-11.68 0-6.453-5.28-11.794-11.735-11.794-6.396 0-11.678 5.341-11.678 11.794 0 6.398 5.282 11.68 11.678 11.68m0-32.863c11.735 0 21.125 9.448 21.125 21.183 0 11.737-9.39 21.067-21.125 21.067-11.736 0-21.065-9.33-21.065-21.067 0-11.735 9.33-21.183 21.065-21.183M322.72 49.114c0-.587.529-1.057 1.116-1.057h1.468l23.413 22.534h.058V49.76c0-.589.469-1.117 1.115-1.117h7.043c.586 0 1.115.529 1.115 1.117v39.49c0 .587-.53 1.056-1.115 1.056h-.94c-.175 0-.645-.175-.763-.294L332.052 66.72h-.06v21.888c0 .585-.467 1.114-1.115 1.114h-6.982c-.586 0-1.114-.529-1.114-1.115l-.06-39.491zM382.933 54.16h-9.565a1.115 1.115 0 01-1.115-1.114V49.76c0-.588.47-1.115 1.115-1.115h25.233c.644 0 1.115.527 1.115 1.115v3.286c0 .586-.47 1.115-1.115 1.115h-9.565v34.445c0 .586-.527 1.115-1.115 1.115h-3.873c-.587 0-1.115-.53-1.115-1.115V54.16zM409.871 49.76c0-.588.528-1.115 1.114-1.115h3.874c.586 0 1.116.527 1.116 1.115v38.846c0 .586-.53 1.115-1.116 1.115h-3.874c-.586 0-1.114-.529-1.114-1.115V49.76zM436.808 54.16h-9.565a1.115 1.115 0 01-1.115-1.114V49.76c0-.588.47-1.115 1.115-1.115h25.233c.644 0 1.115.527 1.115 1.115v3.286c0 .586-.47 1.115-1.115 1.115h-9.565v34.445c0 .586-.529 1.115-1.116 1.115h-3.873c-.588 0-1.115-.53-1.115-1.115V54.16zM463.743 49.76c0-.588.47-1.115 1.115-1.115h3.874c.586 0 1.115.527 1.115 1.115v34.502h15.903c.644 0 1.114.529 1.114 1.116v3.228c0 .586-.47 1.115-1.114 1.115h-20.892a1.115 1.115 0 01-1.115-1.115V49.76zM496.844 49.76c0-.588.47-1.115 1.114-1.115h23.473c.645 0 1.115.527 1.115 1.115v3.286c0 .586-.47 1.115-1.115 1.115h-18.543v11.971h15.668c.586 0 1.115.527 1.115 1.113v3.288c0 .645-.53 1.115-1.115 1.115h-15.668v12.614h18.543c.645 0 1.115.529 1.115 1.116v3.228c0 .586-.47 1.115-1.115 1.115h-23.473a1.115 1.115 0 01-1.114-1.115V49.76z" fill="#FEFEFE"/>
    <g transform="translate(0 -.195)">
      <mask id="b" fill="#fff">
        <use xlink:href="#a"/>
      </mask>
      <path d="M66.269 103.27l-14.546-.01-4.102-8.802 25.917-53.58h21.826l-29.096 62.391zM22.63 40.87h29.092L37.164 72.04 22.63 40.87zm91.416-10.113L62.944 1.252a7.896 7.896 0 00-7.895 0L3.948 30.757A7.894 7.894 0 000 37.593v59.01a7.89 7.89 0 003.949 6.835l51.102 29.504a7.896 7.896 0 007.895 0l51.101-29.505a7.89 7.89 0 003.948-6.834v-59.01a7.894 7.894 0 00-3.948-6.837z" fill="#FEFEFE" mask="url(#b)"/>
    </g>
  </g>
</svg>
