<svg width="192" height="192" viewBox="0 0 192 192" fill="none" xmlns="http://www.w3.org/2000/svg">
<rect width="192" height="192" fill="#0A1628"/>
<path d="M47.9698 63C52.3932 63 56.4116 63.6572 60.025 64.9715C63.7007 66.2859 66.8469 68.2888 69.4636 70.9801C72.0802 73.6088 74.105 76.926 75.5379 80.9317C76.9708 84.8748 77.6872 89.5064 77.6872 94.8265C77.6872 102.275 76.3478 108.533 73.6688 113.603C71.0522 118.61 67.3765 122.428 62.6416 125.057C57.9068 127.623 52.3932 128.906 46.1008 128.906H19V123.085L27.9713 120.738L26.2892 123.085V69.1024L28.0647 71.5434L19 69.2902V63.4694L38.9985 63H47.9698ZM46.6615 120.55C48.9666 120.55 51.2095 120.206 53.39 119.518C55.5705 118.767 57.5641 117.515 59.3708 115.762C61.1776 113.947 62.6105 111.413 63.6696 108.158C64.791 104.903 65.3517 100.71 65.3517 95.5775C65.3517 90.5704 64.8222 86.5021 63.763 83.3727C62.7662 80.1807 61.3956 77.7397 59.6512 76.0498C57.9691 74.2973 56.0689 73.0768 53.9507 72.3883C51.8948 71.6999 49.7765 71.3556 47.596 71.3556H35.9146L37.7837 69.478V122.428L35.9146 120.55H46.6615Z" fill="white"/>
<path d="M148.983 63.4694L173 63V68.8208L164.403 71.1679L167.113 68.1636L150.011 129H139.171L124.312 76.9886H126.461L110.949 129H100.108L84.4084 69.0085L85.6233 70.9801L78.2406 69.2902V63.4694L103.379 63V68.8208L94.688 71.2617L96.1832 69.0085L107.678 118.579L105.341 118.485L120.854 63.3755L131.414 63L146.46 118.297L144.124 118.391L156.926 69.1024L157.954 71.1679L148.983 69.2902V63.4694Z" fill="white"/>
</svg>
